<svg version="1.1" id="Layer_1" xmlns="http://www.w3.org/2000/svg" xmlns:xlink="http://www.w3.org/1999/xlink" x="0px" y="0px"
	 width="100%" viewBox="0 0 443 60" enable-background="new 0 0 443 60" xml:space="preserve">
<path fill="#030302" opacity="1.000000" stroke="none" 
	d="
M329.000000,61.000000 
	C219.333344,61.000000 110.166695,61.000000 1.000029,61.000000 
	C1.000020,41.000015 1.000020,21.000031 1.000010,1.000035 
	C148.666641,1.000023 296.333282,1.000023 443.999939,1.000012 
	C443.999939,20.999964 443.999939,40.999928 443.999969,60.999947 
	C405.833344,61.000000 367.666656,61.000000 329.000000,61.000000 
M198.599716,28.576847 
	C198.475037,28.305004 198.285446,28.090475 197.972839,27.233541 
	C195.623581,24.935040 193.274307,22.636539 190.420715,20.168646 
	C190.248489,20.126429 190.076248,20.084211 190.166885,19.415543 
	C191.397217,19.366999 193.063675,18.788408 193.773468,19.372463 
	C195.663223,20.927443 197.114990,23.007053 198.793655,24.829481 
	C199.615143,25.721340 200.553940,26.505157 202.450577,28.288334 
	C199.578018,16.978157 187.731903,10.709815 177.188950,13.525885 
	C165.730774,16.586412 158.878876,28.042028 161.877914,39.303394 
	C166.484772,38.555775 167.344803,41.293697 167.022629,44.992088 
	C167.022629,44.992088 167.025452,45.059105 166.400238,44.747795 
	C165.635895,43.474857 164.871552,42.201920 163.404648,39.758961 
	C163.472580,47.683346 169.617157,53.507355 178.270798,55.451347 
	C178.815353,55.531738 179.359909,55.612129 180.754593,55.876862 
	C192.357544,56.023602 200.487305,50.251553 203.483871,39.520607 
	C203.614380,38.362492 203.744888,37.204372 204.046509,35.283447 
	C203.989517,34.508503 203.932541,33.733562 203.943848,32.280487 
	C203.629303,31.275030 203.314758,30.269575 202.239853,29.019089 
	C201.459702,29.148821 200.679550,29.278553 199.443893,29.295460 
	C199.443893,29.295460 198.974609,29.298639 198.889450,29.081781 
	C198.889450,29.081781 198.669907,29.003794 198.599716,28.576847 
M360.071014,52.044567 
	C360.071014,52.044567 360.068268,51.978951 360.711731,51.614693 
	C362.692719,47.433399 362.525085,43.594543 358.498169,39.629192 
	C354.989929,39.105007 351.481659,38.580818 347.241089,38.112083 
	C347.214172,39.056892 347.187256,40.001701 347.024506,41.450752 
	C347.083466,41.614536 347.142426,41.778316 347.091309,42.800350 
	C347.091309,44.479908 347.091309,46.159466 347.091309,47.824074 
	C348.722076,47.824074 349.824524,47.824074 351.529907,47.429333 
	C351.689728,45.678616 351.849548,43.927902 352.757019,42.016842 
	C354.238068,43.087093 355.719086,44.157341 357.009186,45.889954 
	C357.039795,46.801090 357.070404,47.712231 357.082214,49.318668 
	C356.414429,49.901730 355.746643,50.484791 354.659637,51.094231 
	C354.375031,51.181667 354.164612,51.357777 353.374573,51.826458 
	C352.920746,51.794205 352.466949,51.761951 352.000671,51.041409 
	C351.275452,50.386444 350.550262,49.731480 348.992004,49.089878 
	C348.550354,51.262535 348.108734,53.435196 347.370819,57.065285 
	C351.827423,55.857170 354.969788,55.005333 358.695679,53.999813 
	C359.133972,53.356632 359.572266,52.713451 360.071014,52.044567 
M389.874939,41.991734 
	C391.199707,42.008282 392.524475,42.024834 394.018280,42.953983 
	C394.024506,46.093338 394.173706,49.240696 393.998505,52.369896 
	C393.806763,55.794636 394.961731,56.921463 398.693054,55.294605 
	C398.138550,50.906868 397.584595,46.523415 397.862000,42.019222 
	C400.549103,41.967766 403.763397,42.740692 403.649963,38.158802 
	C398.809601,38.158802 393.962860,38.158802 388.411621,38.309219 
	C388.311981,39.007481 388.212311,39.705738 387.291443,40.535686 
	C381.449890,36.337612 375.242584,37.253574 372.773804,42.994728 
	C370.909302,47.330635 373.348633,50.862015 376.324677,54.803856 
	C380.220062,56.931477 383.784943,56.389214 387.099030,53.597916 
	C385.362030,48.455528 381.704834,53.032719 378.755005,51.308128 
	C377.949554,49.268150 376.332520,47.103622 376.619873,45.231380 
	C376.816071,43.953011 380.206421,41.824570 381.237244,42.263519 
	C384.451508,43.632290 386.067871,41.667580 388.122467,40.975128 
	C388.450867,41.242130 388.779266,41.509132 389.874939,41.991734 
M341.324738,30.803888 
	C345.220123,32.931465 348.784973,32.389221 352.098999,29.597908 
	C350.362000,24.455519 346.704834,29.032736 343.755005,27.308119 
	C340.886261,25.763069 340.037720,22.999807 341.803436,20.754501 
	C342.971222,19.269613 345.882294,19.127892 348.034912,18.455288 
	C349.433563,18.018276 350.871765,17.708029 353.104401,17.131147 
	C346.187500,12.307405 339.660004,13.504946 337.601166,19.368317 
	C336.154022,23.489746 338.236847,27.041838 341.324738,30.803888 
M439.418030,47.633392 
	C441.519623,43.340069 440.770111,39.116459 437.208679,38.388477 
	C434.255066,37.784729 431.010803,38.602615 427.221619,38.595901 
	C426.964905,38.449711 426.719849,38.270271 426.445679,38.173737 
	C426.336456,38.135288 426.036499,38.279751 426.036285,38.341644 
	C426.016998,44.092098 426.018341,49.842621 426.018341,55.593143 
	C426.458649,55.774586 426.898956,55.956028 427.339294,56.137474 
	C428.544342,54.181274 429.749420,52.225079 431.487610,49.403461 
	C432.654694,50.482265 433.939697,51.852688 435.409912,52.982063 
	C437.182068,54.343403 439.111389,55.500137 441.942657,57.394413 
	C440.494385,53.123749 439.612885,50.524490 439.418030,47.633392 
M312.221039,14.595972 
	C311.964386,14.449808 311.719421,14.270399 311.445312,14.173907 
	C311.336121,14.135476 311.036224,14.280020 311.036011,14.341979 
	C311.016693,20.091984 311.018066,25.842056 311.018066,31.592125 
	C311.458282,31.773701 311.898468,31.955276 312.338684,32.136852 
	C313.543732,30.181232 314.748779,28.225613 316.487030,25.404669 
	C317.653137,26.481840 318.938568,27.850979 320.408356,28.980213 
	C322.180939,30.342115 324.109924,31.500429 326.950653,33.402771 
	C325.494659,29.125462 324.610168,26.527071 324.413635,23.636824 
	C326.524475,19.336172 325.779907,15.121088 322.209900,14.389213 
	C319.256348,13.783726 316.010559,14.603863 312.221039,14.595972 
M312.221039,38.595955 
	C311.964355,38.449795 311.719391,38.270390 311.445251,38.173912 
	C311.336060,38.135487 311.036133,38.280045 311.035919,38.342022 
	C311.016632,44.092266 311.018005,49.842579 311.018005,55.592888 
	C311.466003,55.761967 311.914001,55.931042 312.362000,56.100121 
	C313.558289,54.157627 314.754578,52.215134 316.486664,49.402588 
	C317.654297,50.481876 318.939331,51.852226 320.409454,52.981674 
	C322.181549,54.343098 324.110809,55.499985 326.943512,57.395485 
	C325.493652,53.123734 324.611603,50.524963 324.416626,47.634468 
	C326.519897,43.341232 325.770660,39.116314 322.208405,38.388451 
	C319.254517,37.784893 316.010010,38.603680 312.221039,38.595955 
M420.133972,53.560272 
	C420.421051,53.116020 420.708099,52.671764 421.618317,51.868645 
	C422.017761,50.528606 422.417206,49.188564 423.033661,47.202126 
	C422.692169,46.521687 422.350647,45.841248 421.416016,44.909958 
	C420.623718,41.471573 419.476440,38.379761 415.252838,37.938530 
	C410.739471,37.467030 407.556061,39.280529 405.523132,43.303692 
	C403.005646,48.285679 406.262726,51.694881 409.283752,54.436996 
	C412.426636,57.289703 416.339722,56.627018 420.133972,53.560272 
M294.432587,41.003658 
	C302.396423,40.197166 307.773224,35.000023 308.078156,27.814087 
	C308.381927,20.655649 303.367462,13.855664 296.561707,13.205247 
	C291.013947,12.675053 285.375153,13.097432 279.858826,13.097432 
	C278.326202,23.113701 278.975006,28.003441 281.873260,27.001955 
	C282.162537,25.799747 282.491364,24.433142 282.873138,22.846655 
	C286.589172,22.846655 290.150574,22.405806 293.515472,23.027958 
	C295.264038,23.351263 296.665344,25.552582 298.223541,26.905537 
	C296.723419,28.319063 295.412079,30.569786 293.681244,30.960037 
	C290.700104,31.632198 287.457825,31.146122 284.252075,31.146122 
	C282.322998,39.233501 289.151947,35.140594 290.983856,36.647800 
	C292.045807,38.413425 292.814697,39.691803 294.432587,41.003658 
M102.262032,22.856041 
	C105.380325,22.745710 108.803894,22.732628 108.875656,26.904858 
	C108.947266,31.067881 105.586021,31.223757 102.425110,31.149868 
	C100.930061,31.114923 99.317398,30.801073 97.971909,31.251923 
	C96.756081,31.659321 95.831474,32.935829 94.778442,33.829082 
	C95.748322,34.629929 96.762932,36.159107 97.680161,36.102772 
	C101.234749,35.884434 103.453545,36.889416 103.279312,40.725571 
	C111.433632,41.209240 117.668526,36.280788 118.789772,28.797615 
	C119.818481,21.931997 114.745361,14.205570 107.716606,13.305890 
	C102.056351,12.581378 96.229408,13.159198 90.840225,13.159198 
	C90.840225,18.158415 90.840225,22.635027 90.840225,27.111639 
	C91.239296,27.139389 91.638359,27.167141 92.037430,27.194891 
	C92.600250,25.809427 93.163071,24.423962 93.800125,22.855742 
	C96.369270,22.855742 98.852028,22.855742 102.262032,22.856041 
M227.049622,36.258499 
	C228.393616,37.543201 229.737610,38.827908 231.774719,40.775162 
	C238.422745,41.341946 244.915314,36.128529 245.827377,28.418764 
	C246.649155,21.472254 241.360016,13.985273 234.335281,13.225704 
	C228.800186,12.627209 223.148651,13.105458 217.794632,13.105458 
	C217.794632,18.104870 217.794632,22.607538 217.794632,27.110207 
	C218.193756,27.148855 218.592880,27.187506 218.992004,27.226154 
	C219.577835,25.861061 220.163666,24.495968 220.840424,22.918997 
	C224.621872,22.918997 228.480637,22.564209 232.211090,23.101011 
	C233.619766,23.303720 235.681305,25.545904 235.712067,26.897848 
	C235.742828,28.249271 233.855606,30.243822 232.355072,30.872334 
	C230.645081,31.588570 228.425217,31.010864 226.441177,31.171440 
	C224.524475,31.326569 221.416672,30.194410 221.978012,33.794941 
	C222.135559,34.805523 224.714493,35.438606 227.049622,36.258499 
M69.830719,34.642735 
	C66.330482,27.063694 62.830238,19.484655 58.837879,10.840037 
	C54.347221,20.723946 50.422386,29.362476 46.222412,38.606586 
	C51.460823,38.558804 56.140930,40.871529 59.099815,34.613644 
	C60.468651,37.745785 61.516121,40.142582 62.519615,42.438755 
	C59.946289,43.067493 57.983505,43.547062 56.020718,44.026627 
	C56.109894,44.483459 56.199074,44.940289 56.288250,45.397118 
	C62.163578,45.397118 68.038902,45.397118 74.781586,45.397118 
	C73.012833,41.579151 71.567818,38.459988 69.830719,34.642735 
M130.347321,22.854385 
	C133.920212,22.301125 134.871811,23.947874 134.800781,27.360991 
	C134.604797,36.778492 134.733002,46.202740 134.733002,55.682320 
	C138.253204,55.682320 140.996109,55.682320 143.913757,55.682320 
	C143.913757,47.782070 143.913757,40.205467 143.913757,32.586143 
	C142.441788,32.173119 141.215591,31.829050 139.577362,31.369371 
	C139.577362,26.968170 139.577362,22.696535 139.577362,17.849020 
	C135.869751,17.849020 132.626450,17.849020 129.539749,17.849020 
	C129.057068,15.873355 128.719162,14.490293 128.433487,13.320951 
	C125.815353,13.320951 123.549507,13.320951 121.189270,13.320951 
	C121.189270,16.552813 121.189270,19.451353 121.189270,22.853970 
	C124.145683,22.853970 126.773972,22.853970 130.347321,22.854385 
M15.925440,43.248596 
	C15.923302,37.088524 15.920093,30.928453 15.919284,24.768383 
	C15.918157,16.189043 15.397189,15.583869 6.446567,13.728288 
	C6.446567,25.757622 6.446567,37.794056 6.446567,50.112083 
	C11.668068,50.112083 16.489552,50.216331 21.298925,50.021572 
	C22.228518,49.983929 23.110764,48.777092 24.014851,48.109596 
	C23.120878,47.429432 22.311777,46.561291 21.314091,46.110844 
	C19.590296,45.332565 17.749411,44.813629 15.925440,43.248596 
M83.121063,17.725401 
	C83.121063,30.313229 83.121063,42.901058 83.121063,55.580711 
	C86.730118,55.580711 89.746582,55.580711 93.192719,55.580711 
	C93.192719,50.568268 93.192719,45.976566 93.192719,41.341579 
	C96.087753,41.051804 98.563492,40.803997 101.039223,40.556194 
	C101.071159,39.951969 101.103096,39.347744 101.135033,38.743523 
	C98.541801,38.333412 95.948570,37.923306 93.192207,37.487400 
	C93.043495,34.757679 92.901955,32.159683 92.741463,29.213629 
	C88.530350,29.754551 87.908623,27.500736 88.145653,24.160610 
	C88.399750,20.579931 88.202980,16.967257 88.202980,13.431671 
	C83.626976,13.125921 83.626976,13.125921 83.121063,17.725401 
M210.121002,43.486870 
	C210.121002,47.569221 210.121002,51.651577 210.121002,55.649544 
	C213.823822,55.649544 216.732178,55.649544 220.063110,55.649544 
	C220.063110,50.713768 220.063110,46.122311 220.063110,41.440044 
	C223.026749,41.055088 225.573761,40.724251 228.120758,40.393410 
	C228.122650,39.806892 228.124557,39.220371 228.126450,38.633854 
	C225.587616,38.290150 223.048798,37.946449 220.205811,37.561569 
	C220.072830,34.921364 219.942093,32.325634 219.798920,29.482706 
	C218.286743,29.167639 216.911743,28.881153 215.133148,28.510576 
	C215.133148,23.376535 215.133148,18.451664 215.133148,13.347248 
	C213.291870,13.347248 211.923065,13.347248 210.663055,13.347248 
	C210.431717,13.969973 210.222595,14.271915 210.221100,14.574882 
	C210.175262,23.879923 210.149796,33.185062 210.121002,43.486870 
M274.435486,13.031784 
	C273.855957,14.345849 272.824890,15.643465 272.776337,16.976870 
	C272.583130,22.280075 272.696259,27.594446 272.696167,32.904682 
	C272.696045,40.470539 272.696136,48.036392 272.696136,55.635406 
	C276.250122,55.635406 279.128479,55.635406 282.404175,55.635406 
	C282.404175,50.673367 282.404175,46.075264 282.404175,41.338631 
	C285.402374,41.059383 288.014038,40.816135 290.625671,40.572891 
	C290.654175,39.963509 290.682709,39.354122 290.711212,38.744740 
	C288.093109,38.350475 285.475006,37.956215 282.521851,37.511497 
	C282.374207,34.984501 282.222260,32.383991 282.060242,29.611065 
	C280.651611,29.220594 279.297943,28.845367 277.809662,28.432821 
	C277.809662,24.216726 277.989319,20.227945 277.696777,16.274103 
	C277.612427,15.134110 276.169006,14.094679 274.435486,13.031784 
M53.852406,46.786011 
	C54.412060,44.651825 54.971710,42.517635 55.615974,40.060795 
	C53.303665,40.060795 51.284733,39.831890 49.347584,40.131611 
	C47.733559,40.381344 45.419056,40.807480 44.796082,41.925297 
	C42.400738,46.223309 40.560795,50.830860 38.082676,56.268864 
	C42.248589,55.909084 46.406494,56.775814 48.770851,55.104801 
	C54.710682,50.906815 61.761799,51.845135 66.578255,53.749695 
	C71.968399,55.881111 74.002281,52.996925 77.418922,52.222977 
	C76.829292,47.739384 74.590355,46.809738 71.041672,46.985512 
	C65.573494,47.256367 60.080765,47.031761 53.852406,46.786011 
M155.478668,20.079018 
	C156.312317,17.877642 157.145981,15.676264 158.050156,13.288647 
	C140.916534,12.076962 132.428574,12.726578 130.824478,15.680393 
	C134.234268,15.889337 137.439407,16.085737 140.484818,16.272352 
	C142.330185,20.882984 139.494781,26.054117 142.352371,30.110840 
	C142.833572,30.078098 143.314774,30.045357 143.795990,30.012615 
	C144.039825,27.824917 144.283646,25.637217 144.593216,22.859793 
	C146.533539,22.859793 148.362625,23.127226 150.069809,22.785521 
	C151.821091,22.434992 153.453125,21.488791 155.478668,20.079018 
M333.977539,50.370152 
	C335.451935,49.892612 336.963715,49.505348 338.391022,48.914089 
	C340.077118,48.215607 341.690216,47.340832 343.334991,46.542480 
	C343.113403,46.120216 342.891815,45.697952 342.670197,45.275684 
	C339.692657,44.834728 336.715118,44.393776 333.737579,43.952820 
	C333.846191,43.319206 333.954834,42.685593 334.063446,42.051979 
	C336.981506,42.051979 339.899536,42.051979 342.790436,42.051979 
	C342.961884,37.467541 338.474915,36.449257 329.532776,38.411907 
	C329.532776,44.239052 329.532776,49.972942 329.532776,55.808372 
	C333.945374,55.808372 338.380402,55.808372 343.133362,55.808372 
	C343.029022,54.378593 342.941650,53.181011 342.868561,52.179470 
	C339.706879,51.842556 336.939789,51.547691 333.977539,50.370152 
M361.502014,32.017136 
	C363.628815,32.017136 365.755585,32.017136 367.711670,32.017136 
	C369.114197,28.126781 367.271912,27.731207 364.449799,27.758894 
	C362.622070,27.776823 360.787567,27.102880 358.956085,26.738958 
	C359.051453,26.259029 359.146820,25.779102 359.242188,25.299175 
	C366.798157,24.365932 366.798157,24.365932 367.520874,21.241755 
	C364.961548,19.586578 360.821442,22.819698 358.196655,17.962259 
	C362.080627,17.962259 365.005066,17.962259 368.266968,17.962259 
	C368.057159,16.270893 367.909485,15.080602 367.800690,14.203485 
	C362.924683,14.203485 358.500061,14.203485 354.527466,14.203485 
	C354.527466,20.324671 354.527466,26.054991 354.527466,32.017136 
	C356.574036,32.017136 358.552612,32.017136 361.502014,32.017136 
M12.616346,51.999199 
	C11.450723,52.000439 10.186604,51.718269 9.146205,52.079838 
	C8.027358,52.468666 7.118421,53.461502 6.117894,54.190796 
	C7.079129,54.792702 8.005955,55.835442 9.008069,55.913662 
	C11.987354,56.146221 14.996254,56.000301 17.993580,56.000607 
	C24.236597,56.001247 30.479612,56.000801 36.513115,56.000801 
	C36.513115,52.204639 36.513115,49.293835 36.513115,46.393547 
	C32.851299,46.393547 29.600328,46.393547 26.249647,46.393547 
	C26.049099,48.309982 25.881300,49.913452 25.663033,51.999195 
	C21.502760,51.999195 17.544132,51.999195 12.616346,51.999199 
M332.214478,22.381704 
	C332.214478,20.398804 332.214478,18.415903 332.214478,16.433004 
	C331.661530,16.368454 331.108582,16.303904 330.555634,16.239355 
	C328.792511,20.325222 329.789276,24.911497 329.872253,29.231070 
	C329.889740,30.141417 332.168671,31.008314 333.405579,31.895233 
	C333.740479,31.633879 334.075378,31.372522 334.410278,31.111166 
	C333.901093,28.369038 333.391937,25.626909 332.214478,22.381704 
M364.662781,43.342754 
	C364.662659,45.983219 364.307098,48.690716 364.787964,51.240467 
	C365.106232,52.928101 366.624084,54.389496 367.604889,55.952171 
	C368.204742,55.661594 368.804626,55.371017 369.404480,55.080441 
	C368.558624,50.167419 367.712738,45.254398 366.718567,39.480000 
	C365.760620,40.914005 365.215118,41.730576 364.662781,43.342754 
z"/>
<path fill="#20AA49" opacity="1.000000" stroke="none" 
	d="
M199.899399,29.408287 
	C200.679550,29.278553 201.459702,29.148821 202.619629,29.473158 
	C203.291458,30.937693 203.583496,31.948156 203.875549,32.958618 
	C203.932541,33.733562 203.989517,34.508503 203.714447,35.914841 
	C203.265991,37.717236 203.149612,38.888241 203.033234,40.059242 
	C200.487305,50.251553 192.357544,56.023602 180.125549,55.597076 
	C178.952408,55.228954 178.408295,55.140617 177.864197,55.052277 
	C169.617157,53.507355 163.472580,47.683346 163.404648,39.758961 
	C164.871552,42.201920 165.635895,43.474857 166.720673,45.132275 
	C167.154968,45.776878 167.268814,46.036999 167.382645,46.297119 
	C167.276154,45.880402 167.169662,45.463680 167.063171,45.046959 
	C167.344803,41.293697 166.484772,38.555775 161.877914,39.303394 
	C158.878876,28.042028 165.730774,16.586412 177.188950,13.525885 
	C187.731903,10.709815 199.578018,16.978157 202.450577,28.288334 
	C200.553940,26.505157 199.615143,25.721340 198.793655,24.829481 
	C197.114990,23.007053 195.663223,20.927443 193.773468,19.372463 
	C193.063675,18.788408 191.397217,19.366999 189.844757,19.855431 
	C189.536530,20.672085 189.550415,21.048851 189.564316,21.425617 
	C190.017883,21.063093 190.471466,20.700569 190.925034,20.338041 
	C193.274307,22.636539 195.623581,24.935040 198.062286,27.787531 
	C198.275940,28.600243 198.448669,28.820999 198.669907,29.003794 
	C198.669907,29.003794 198.889450,29.081781 199.029053,29.291698 
	C199.168655,29.501614 199.548325,29.614176 199.548325,29.614176 
	C199.548325,29.614176 199.899399,29.408287 199.899399,29.408287 
M170.103577,49.282665 
	C170.188721,49.327637 170.273880,49.372604 170.359024,49.417572 
	C170.248199,49.271610 170.137360,49.125652 169.985779,48.510170 
	C169.862259,48.244858 169.738739,47.979542 169.615219,47.714226 
	C169.737228,48.151035 169.859238,48.587849 170.103577,49.282665 
M194.194321,35.318588 
	C194.707413,30.119965 191.886078,26.203512 188.229401,23.481871 
	C184.755707,20.896412 176.767914,23.223787 173.694763,26.732321 
	C170.268616,30.643869 170.018707,35.776848 172.614365,40.617580 
	C173.698532,42.639503 174.086151,45.034931 174.712479,47.014069 
	C175.581070,46.791672 177.580780,45.672062 179.392334,45.921131 
	C187.182449,46.992176 191.802399,44.090343 194.194321,35.318588 
M173.554108,50.289902 
	C173.288177,50.010963 173.022247,49.732029 172.756302,49.453094 
	C172.640823,49.563301 172.525330,49.673508 172.409851,49.783714 
	C172.676117,50.062672 172.942368,50.341629 173.554108,50.289902 
z"/>
<path fill="#E41B22" opacity="1.000000" stroke="none" 
	d="
M294.008087,40.986919 
	C292.814697,39.691803 292.045807,38.413425 290.983856,36.647800 
	C289.151947,35.140594 282.322998,39.233501 284.252075,31.146122 
	C287.457825,31.146122 290.700104,31.632198 293.681244,30.960037 
	C295.412079,30.569786 296.723419,28.319063 298.223541,26.905540 
	C296.665344,25.552582 295.264038,23.351263 293.515472,23.027958 
	C290.150574,22.405806 286.589172,22.846655 282.873138,22.846655 
	C282.491364,24.433142 282.162537,25.799747 281.873260,27.001955 
	C278.975006,28.003441 278.326202,23.113701 279.858826,13.097432 
	C285.375153,13.097432 291.013947,12.675053 296.561707,13.205247 
	C303.367462,13.855664 308.381927,20.655649 308.078156,27.814087 
	C307.773224,35.000023 302.396423,40.197166 294.008087,40.986919 
z"/>
<path fill="#21AC49" opacity="1.000000" stroke="none" 
	d="
M101.798409,22.855892 
	C98.852028,22.855742 96.369270,22.855742 93.800125,22.855742 
	C93.163071,24.423962 92.600250,25.809427 92.037430,27.194891 
	C91.638359,27.167141 91.239296,27.139389 90.840225,27.111639 
	C90.840225,22.635027 90.840225,18.158415 90.840225,13.159198 
	C96.229408,13.159198 102.056351,12.581378 107.716606,13.305890 
	C114.745361,14.205570 119.818481,21.931997 118.789772,28.797615 
	C117.668526,36.280788 111.433632,41.209240 103.279312,40.725571 
	C103.453545,36.889416 101.234749,35.884434 97.680161,36.102772 
	C96.762932,36.159107 95.748322,34.629929 94.778442,33.829082 
	C95.831474,32.935829 96.756081,31.659321 97.971909,31.251923 
	C99.317398,30.801073 100.930061,31.114923 102.425110,31.149868 
	C105.586021,31.223757 108.947266,31.067881 108.875656,26.904858 
	C108.803894,22.732628 105.380325,22.745710 101.798409,22.855892 
z"/>
<path fill="#21AC49" opacity="1.000000" stroke="none" 
	d="
M226.616180,36.251671 
	C224.714493,35.438606 222.135559,34.805523 221.978012,33.794941 
	C221.416672,30.194410 224.524475,31.326569 226.441177,31.171440 
	C228.425217,31.010864 230.645081,31.588570 232.355072,30.872334 
	C233.855606,30.243822 235.742828,28.249271 235.712067,26.897848 
	C235.681305,25.545904 233.619766,23.303720 232.211090,23.101011 
	C228.480637,22.564209 224.621872,22.918997 220.840424,22.918997 
	C220.163666,24.495968 219.577835,25.861061 218.992004,27.226154 
	C218.592880,27.187506 218.193756,27.148855 217.794632,27.110207 
	C217.794632,22.607538 217.794632,18.104870 217.794632,13.105458 
	C223.148651,13.105458 228.800186,12.627209 234.335281,13.225704 
	C241.360016,13.985273 246.649155,21.472254 245.827377,28.418764 
	C244.915314,36.128529 238.422745,41.341946 231.774719,40.775162 
	C229.737610,38.827908 228.393616,37.543201 226.616180,36.251671 
z"/>
<path fill="#20A948" opacity="1.000000" stroke="none" 
	d="
M69.976761,34.991779 
	C71.567818,38.459988 73.012833,41.579151 74.781586,45.397118 
	C68.038902,45.397118 62.163578,45.397118 56.288250,45.397118 
	C56.199074,44.940289 56.109894,44.483459 56.020718,44.026627 
	C57.983505,43.547062 59.946289,43.067493 62.519615,42.438755 
	C61.516121,40.142582 60.468651,37.745785 59.099815,34.613644 
	C56.140930,40.871529 51.460823,38.558804 46.222412,38.606586 
	C50.422386,29.362476 54.347221,20.723946 58.837879,10.840037 
	C62.830238,19.484655 66.330482,27.063694 69.976761,34.991779 
z"/>
<path fill="#21AC49" opacity="1.000000" stroke="none" 
	d="
M129.874786,22.854177 
	C126.773972,22.853970 124.145683,22.853970 121.189270,22.853970 
	C121.189270,19.451353 121.189270,16.552813 121.189270,13.320951 
	C123.549507,13.320951 125.815353,13.320951 128.433487,13.320951 
	C128.719162,14.490293 129.057068,15.873355 129.539749,17.849020 
	C132.626450,17.849020 135.869751,17.849020 139.577362,17.849020 
	C139.577362,22.696535 139.577362,26.968170 139.577362,31.369371 
	C141.215591,31.829050 142.441788,32.173119 143.913757,32.586143 
	C143.913757,40.205467 143.913757,47.782070 143.913757,55.682320 
	C140.996109,55.682320 138.253204,55.682320 134.733002,55.682320 
	C134.733002,46.202740 134.604797,36.778492 134.800781,27.360991 
	C134.871811,23.947874 133.920212,22.301125 129.874786,22.854177 
z"/>
<path fill="#21AC49" opacity="1.000000" stroke="none" 
	d="
M15.941545,43.717239 
	C17.749411,44.813629 19.590296,45.332565 21.314091,46.110844 
	C22.311777,46.561291 23.120878,47.429432 24.014851,48.109596 
	C23.110764,48.777092 22.228518,49.983929 21.298925,50.021572 
	C16.489552,50.216331 11.668068,50.112083 6.446567,50.112083 
	C6.446567,37.794056 6.446567,25.757622 6.446567,13.728288 
	C15.397189,15.583869 15.918157,16.189043 15.919284,24.768383 
	C15.920093,30.928453 15.923302,37.088524 15.941545,43.717239 
z"/>
<path fill="#20AB4A" opacity="1.000000" stroke="none" 
	d="
M83.121414,17.256954 
	C83.626976,13.125921 83.626976,13.125921 88.202980,13.431671 
	C88.202980,16.967257 88.399750,20.579931 88.145653,24.160610 
	C87.908623,27.500736 88.530350,29.754551 92.741463,29.213629 
	C92.901955,32.159683 93.043495,34.757679 93.192207,37.487400 
	C95.948570,37.923306 98.541801,38.333412 101.135033,38.743523 
	C101.103096,39.347744 101.071159,39.951969 101.039223,40.556194 
	C98.563492,40.803997 96.087753,41.051804 93.192719,41.341579 
	C93.192719,45.976566 93.192719,50.568268 93.192719,55.580711 
	C89.746582,55.580711 86.730118,55.580711 83.121063,55.580711 
	C83.121063,42.901058 83.121063,30.313229 83.121414,17.256954 
z"/>
<path fill="#20AB4A" opacity="1.000000" stroke="none" 
	d="
M210.121094,42.988529 
	C210.149796,33.185062 210.175262,23.879923 210.221100,14.574882 
	C210.222595,14.271915 210.431717,13.969973 210.663055,13.347248 
	C211.923065,13.347248 213.291870,13.347248 215.133148,13.347248 
	C215.133148,18.451664 215.133148,23.376535 215.133148,28.510576 
	C216.911743,28.881153 218.286743,29.167639 219.798920,29.482706 
	C219.942093,32.325634 220.072830,34.921364 220.205811,37.561569 
	C223.048798,37.946449 225.587616,38.290150 228.126450,38.633854 
	C228.124557,39.220371 228.122650,39.806892 228.120758,40.393410 
	C225.573761,40.724251 223.026749,41.055088 220.063110,41.440044 
	C220.063110,46.122311 220.063110,50.713768 220.063110,55.649544 
	C216.732178,55.649544 213.823822,55.649544 210.121002,55.649544 
	C210.121002,51.651577 210.121002,47.569221 210.121094,42.988529 
z"/>
<path fill="#E91B21" opacity="1.000000" stroke="none" 
	d="
M274.892090,13.020464 
	C276.169006,14.094679 277.612427,15.134110 277.696777,16.274103 
	C277.989319,20.227945 277.809662,24.216726 277.809662,28.432821 
	C279.297943,28.845367 280.651611,29.220594 282.060242,29.611065 
	C282.222260,32.383991 282.374207,34.984501 282.521851,37.511497 
	C285.475006,37.956215 288.093109,38.350475 290.711212,38.744740 
	C290.682709,39.354122 290.654175,39.963509 290.625671,40.572891 
	C288.014038,40.816135 285.402374,41.059383 282.404175,41.338631 
	C282.404175,46.075264 282.404175,50.673367 282.404175,55.635406 
	C279.128479,55.635406 276.250122,55.635406 272.696136,55.635406 
	C272.696136,48.036392 272.696045,40.470539 272.696167,32.904682 
	C272.696259,27.594446 272.583130,22.280075 272.776337,16.976870 
	C272.824890,15.643465 273.855957,14.345849 274.892090,13.020464 
z"/>
<path fill="#21AC49" opacity="1.000000" stroke="none" 
	d="
M54.225426,46.901672 
	C60.080765,47.031761 65.573494,47.256367 71.041672,46.985512 
	C74.590355,46.809738 76.829292,47.739384 77.418922,52.222977 
	C74.002281,52.996925 71.968399,55.881111 66.578255,53.749695 
	C61.761799,51.845135 54.710682,50.906815 48.770851,55.104801 
	C46.406494,56.775814 42.248589,55.909084 38.082676,56.268864 
	C40.560795,50.830860 42.400738,46.223309 44.796082,41.925297 
	C45.419056,40.807480 47.733559,40.381344 49.347584,40.131611 
	C51.284733,39.831890 53.303665,40.060795 55.615974,40.060795 
	C54.971710,42.517635 54.412060,44.651825 54.225426,46.901672 
z"/>
<path fill="#20AA4A" opacity="1.000000" stroke="none" 
	d="
M155.308014,20.441153 
	C153.453125,21.488791 151.821091,22.434992 150.069809,22.785521 
	C148.362625,23.127226 146.533539,22.859793 144.593216,22.859793 
	C144.283646,25.637217 144.039825,27.824917 143.795990,30.012615 
	C143.314774,30.045357 142.833572,30.078098 142.352371,30.110840 
	C139.494781,26.054117 142.330185,20.882984 140.484818,16.272352 
	C137.439407,16.085737 134.234268,15.889337 130.824478,15.680393 
	C132.428574,12.726578 140.916534,12.076962 158.050156,13.288647 
	C157.145981,15.676264 156.312317,17.877642 155.308014,20.441153 
z"/>
<path fill="#F3F7F2" opacity="1.000000" stroke="none" 
	d="
M334.075134,50.811489 
	C336.939789,51.547691 339.706879,51.842556 342.868561,52.179470 
	C342.941650,53.181011 343.029022,54.378593 343.133362,55.808372 
	C338.380402,55.808372 333.945374,55.808372 329.532776,55.808372 
	C329.532776,49.972942 329.532776,44.239052 329.532776,38.411907 
	C338.474915,36.449257 342.961884,37.467541 342.790436,42.051979 
	C339.899536,42.051979 336.981506,42.051979 334.063446,42.051979 
	C333.954834,42.685593 333.846191,43.319206 333.737579,43.952820 
	C336.715118,44.393776 339.692657,44.834728 342.670197,45.275684 
	C342.891815,45.697952 343.113403,46.120216 343.334991,46.542480 
	C341.690216,47.340832 340.077118,48.215607 338.391022,48.914089 
	C336.963715,49.505348 335.451935,49.892612 334.075134,50.811489 
z"/>
<path fill="#F3F7F2" opacity="1.000000" stroke="none" 
	d="
M361.016602,32.017136 
	C358.552612,32.017136 356.574036,32.017136 354.527466,32.017136 
	C354.527466,26.054991 354.527466,20.324671 354.527466,14.203485 
	C358.500061,14.203485 362.924683,14.203485 367.800690,14.203485 
	C367.909485,15.080602 368.057159,16.270893 368.266968,17.962259 
	C365.005066,17.962259 362.080627,17.962259 358.196655,17.962259 
	C360.821442,22.819698 364.961548,19.586578 367.520874,21.241755 
	C366.798157,24.365932 366.798157,24.365932 359.242188,25.299175 
	C359.146820,25.779102 359.051453,26.259029 358.956085,26.738958 
	C360.787567,27.102880 362.622070,27.776823 364.449799,27.758894 
	C367.271912,27.731207 369.114197,28.126781 367.711670,32.017136 
	C365.755585,32.017136 363.628815,32.017136 361.016602,32.017136 
z"/>
<path fill="#21AE4A" opacity="1.000000" stroke="none" 
	d="
M13.100925,51.999199 
	C17.544132,51.999195 21.502760,51.999195 25.663033,51.999195 
	C25.881300,49.913452 26.049099,48.309982 26.249647,46.393547 
	C29.600328,46.393547 32.851299,46.393547 36.513115,46.393547 
	C36.513115,49.293835 36.513115,52.204639 36.513115,56.000801 
	C30.479612,56.000801 24.236597,56.001247 17.993580,56.000607 
	C14.996254,56.000301 11.987354,56.146221 9.008069,55.913662 
	C8.005955,55.835442 7.079129,54.792702 6.117894,54.190796 
	C7.118421,53.461502 8.027358,52.468666 9.146205,52.079838 
	C10.186604,51.718269 11.450723,52.000439 13.100925,51.999199 
z"/>
<path fill="#EEF0EA" opacity="1.000000" stroke="none" 
	d="
M422.816681,47.848522 
	C422.417206,49.188564 422.017761,50.528606 421.089233,52.064384 
	C420.258911,52.782200 419.957611,53.304272 419.656342,53.826347 
	C416.339722,56.627018 412.426636,57.289703 409.283752,54.436996 
	C406.262726,51.694881 403.005646,48.285679 405.523132,43.303692 
	C407.556061,39.280529 410.739471,37.467030 415.252838,37.938530 
	C419.476440,38.379761 420.623718,41.471573 421.710693,45.336823 
	C422.275787,46.458630 422.546234,47.153576 422.816681,47.848522 
M410.265991,50.166779 
	C412.669647,52.907455 415.568420,52.485279 417.403625,50.122162 
	C418.459717,48.762280 418.589691,45.474827 417.632416,44.110256 
	C416.732361,42.827251 413.527832,42.031235 411.920380,42.618122 
	C408.919281,43.713783 408.165558,46.489822 410.265991,50.166779 
z"/>
<path fill="#E5EEE8" opacity="1.000000" stroke="none" 
	d="
M323.729553,47.926201 
	C324.611603,50.524963 325.493652,53.123734 326.943512,57.395485 
	C324.110809,55.499985 322.181549,54.343098 320.409454,52.981674 
	C318.939331,51.852226 317.654297,50.481876 316.486664,49.402588 
	C314.754578,52.215134 313.558289,54.157627 312.362000,56.100121 
	C311.914001,55.931042 311.466003,55.761967 311.018005,55.592888 
	C311.018005,49.842579 311.016632,44.092266 311.035919,38.342022 
	C311.036133,38.280045 311.336060,38.135487 311.445251,38.173912 
	C311.719391,38.270390 311.964355,38.449795 312.586243,39.111000 
	C312.983154,40.462139 313.014893,41.298229 313.029419,42.504463 
	C314.806610,48.430016 318.334412,45.883850 321.753235,44.974361 
	C322.534424,46.137520 323.131989,47.031864 323.729553,47.926201 
z"/>
<path fill="#E5EEE8" opacity="1.000000" stroke="none" 
	d="
M323.725647,23.928684 
	C324.610168,26.527071 325.494659,29.125462 326.950653,33.402771 
	C324.109924,31.500429 322.180939,30.342115 320.408356,28.980213 
	C318.938568,27.850979 317.653137,26.481840 316.487030,25.404669 
	C314.748779,28.225613 313.543732,30.181232 312.338684,32.136852 
	C311.898468,31.955276 311.458282,31.773701 311.018066,31.592125 
	C311.018066,25.842056 311.016693,20.091984 311.036011,14.341979 
	C311.036224,14.280020 311.336121,14.135476 311.445312,14.173907 
	C311.719421,14.270399 311.964386,14.449808 312.586243,15.111008 
	C312.983185,16.462139 313.014923,17.298233 313.029419,18.504467 
	C314.806641,24.429979 318.334442,21.883835 321.753235,20.974270 
	C322.533142,22.138247 323.129395,23.033468 323.725647,23.928684 
z"/>
<path fill="#E5EEE8" opacity="1.000000" stroke="none" 
	d="
M438.731384,47.925240 
	C439.612885,50.524490 440.494385,53.123749 441.942657,57.394413 
	C439.111389,55.500137 437.182068,54.343403 435.409912,52.982063 
	C433.939697,51.852688 432.654694,50.482265 431.487610,49.403461 
	C429.749420,52.225079 428.544342,54.181274 427.339294,56.137474 
	C426.898956,55.956028 426.458649,55.774586 426.018341,55.593143 
	C426.018341,49.842621 426.016998,44.092098 426.036285,38.341644 
	C426.036499,38.279751 426.336456,38.135288 426.445679,38.173737 
	C426.719849,38.270271 426.964905,38.449711 427.586395,39.110435 
	C427.983032,40.461456 428.014893,41.297943 428.029358,42.505230 
	C429.805023,48.422188 433.330811,45.887421 436.750061,44.978260 
	C437.533508,46.139343 438.132446,47.032291 438.731384,47.925240 
z"/>
<path fill="#FCFAFA" opacity="1.000000" stroke="none" 
	d="
M347.973419,38.056633 
	C351.481659,38.580818 354.989929,39.105007 358.771149,40.328728 
	C359.385498,44.678493 359.726898,48.328724 360.068268,51.978951 
	C360.068268,51.978951 360.071014,52.044567 359.757751,52.157852 
	C359.000366,52.898590 358.556274,53.526047 358.112152,54.153496 
	C354.969788,55.005333 351.827423,55.857170 347.370819,57.065285 
	C348.108734,53.435196 348.550354,51.262535 349.475403,49.454823 
	C350.643585,50.456413 351.328369,51.093060 352.013123,51.729706 
	C352.466949,51.761951 352.920746,51.794205 353.928284,51.799919 
	C354.803436,51.641773 355.002380,51.406601 355.078857,51.067856 
	C355.746643,50.484791 356.414429,49.901730 357.288330,48.785835 
	C357.396332,47.244534 357.298218,46.236065 357.200134,45.227592 
	C355.719086,44.157341 354.238068,43.087093 352.161804,42.025620 
	C351.566589,42.034397 351.101532,42.047443 350.712646,42.015095 
	C349.282959,41.969196 348.242157,41.955650 347.201385,41.942101 
	C347.142426,41.778316 347.083466,41.614536 347.314392,40.980362 
	C347.727295,39.692188 347.850372,38.874413 347.973419,38.056633 
z"/>
<path fill="#EBF4F2" opacity="1.000000" stroke="none" 
	d="
M388.105164,40.242935 
	C386.067871,41.667580 384.451508,43.632290 381.237244,42.263519 
	C380.206421,41.824570 376.816071,43.953011 376.619873,45.231380 
	C376.332520,47.103622 377.949554,49.268150 378.608215,51.637840 
	C377.609802,52.701988 376.758240,53.436420 375.906647,54.170856 
	C373.348633,50.862015 370.909302,47.330635 372.773804,42.994728 
	C375.242584,37.253574 381.449890,36.337612 387.686096,40.431080 
	C388.080719,40.326473 388.105164,40.242935 388.105164,40.242935 
z"/>
<path fill="#EBF4F2" opacity="1.000000" stroke="none" 
	d="
M340.906647,30.170849 
	C338.236847,27.041838 336.154022,23.489746 337.601166,19.368317 
	C339.660004,13.504946 346.187500,12.307405 353.104401,17.131147 
	C350.871765,17.708029 349.433563,18.018276 348.034912,18.455288 
	C345.882294,19.127892 342.971222,19.269613 341.803436,20.754501 
	C340.037720,22.999807 340.886261,25.763069 343.608215,27.637829 
	C342.609833,28.701975 341.758240,29.436411 340.906647,30.170849 
z"/>
<path fill="#FCF7ED" opacity="1.000000" stroke="none" 
	d="
M324.073090,47.780334 
	C323.131989,47.031864 322.534424,46.137520 321.784454,44.593239 
	C319.490997,39.919510 315.894379,42.803970 313.046631,42.134323 
	C313.014893,41.298229 312.983154,40.462139 312.922852,39.209190 
	C316.010010,38.603680 319.254517,37.784893 322.208405,38.388451 
	C325.770660,39.116314 326.519897,43.341232 324.073090,47.780334 
z"/>
<path fill="#FCF7ED" opacity="1.000000" stroke="none" 
	d="
M313.046631,18.134327 
	C313.014923,17.298233 312.983185,16.462139 312.922852,15.209193 
	C316.010559,14.603863 319.256348,13.783726 322.209900,14.389213 
	C325.779907,15.121088 326.524475,19.336172 324.069641,23.782757 
	C323.129395,23.033468 322.533142,22.138247 321.784485,20.593147 
	C319.490997,15.919546 315.894409,18.803955 313.046631,18.134327 
z"/>
<path fill="#FCF7ED" opacity="1.000000" stroke="none" 
	d="
M439.074707,47.779320 
	C438.132446,47.032291 437.533508,46.139343 436.782776,44.596825 
	C434.492188,39.921326 430.894806,42.801952 428.046753,42.134434 
	C428.014893,41.297943 427.983032,40.461456 427.923248,39.207829 
	C431.010803,38.602615 434.255066,37.784729 437.208679,38.388477 
	C440.770111,39.116459 441.519623,43.340069 439.074707,47.779320 
z"/>
<path fill="#F2EFE1" opacity="1.000000" stroke="none" 
	d="
M332.548615,22.633244 
	C333.391937,25.626909 333.901093,28.369038 334.410278,31.111166 
	C334.075378,31.372522 333.740479,31.633879 333.405579,31.895233 
	C332.168671,31.008314 329.889740,30.141417 329.872253,29.231070 
	C329.789276,24.911497 328.792511,20.325222 330.555634,16.239355 
	C331.108582,16.303904 331.661530,16.368454 332.214478,16.433004 
	C332.214478,18.415903 332.214478,20.398804 332.548615,22.633244 
z"/>
<path fill="#F2EFE1" opacity="1.000000" stroke="none" 
	d="
M364.666199,42.944950 
	C365.215118,41.730576 365.760620,40.914005 366.718567,39.480000 
	C367.712738,45.254398 368.558624,50.167419 369.404480,55.080441 
	C368.804626,55.371017 368.204742,55.661594 367.604889,55.952171 
	C366.624084,54.389496 365.106232,52.928101 364.787964,51.240467 
	C364.307098,48.690716 364.662659,45.983219 364.666199,42.944950 
z"/>
<path fill="#E4F3F4" opacity="1.000000" stroke="none" 
	d="
M397.030640,42.139961 
	C397.584595,46.523415 398.138550,50.906868 398.693054,55.294605 
	C394.961731,56.921463 393.806763,55.794636 393.998505,52.369896 
	C394.173706,49.240696 394.024506,46.093338 394.204254,42.337067 
	C395.270355,41.860088 396.150513,42.000027 397.030640,42.139961 
z"/>
<path fill="#FEF9F0" opacity="1.000000" stroke="none" 
	d="
M397.446320,42.079590 
	C396.150513,42.000027 395.270355,41.860088 394.119751,41.880768 
	C392.524475,42.024834 391.199707,42.008282 389.485168,41.522179 
	C389.102295,40.088017 389.109222,39.123409 389.116150,38.158802 
	C393.962860,38.158802 398.809601,38.158802 403.649963,38.158802 
	C403.763397,42.740692 400.549103,41.967766 397.446320,42.079590 
z"/>
<path fill="#F3F6F0" opacity="1.000000" stroke="none" 
	d="
M341.115692,30.487366 
	C341.758240,29.436411 342.609833,28.701975 343.841309,27.920113 
	C346.704834,29.032736 350.362000,24.455519 352.098999,29.597908 
	C348.784973,32.389221 345.220123,32.931465 341.115692,30.487366 
z"/>
<path fill="#F3F6F0" opacity="1.000000" stroke="none" 
	d="
M376.115662,54.487358 
	C376.758240,53.436420 377.609802,52.701988 378.841278,51.920120 
	C381.704834,53.032719 385.362030,48.455528 387.099030,53.597916 
	C383.784943,56.389214 380.220062,56.931477 376.115662,54.487358 
z"/>
<path fill="#F8F2E1" opacity="1.000000" stroke="none" 
	d="
M347.146362,42.371223 
	C348.242157,41.955650 349.282959,41.969196 350.639526,42.425674 
	C350.945862,44.520428 350.936432,46.172253 350.927002,47.824074 
	C349.824524,47.824074 348.722076,47.824074 347.091309,47.824074 
	C347.091309,46.159466 347.091309,44.479908 347.146362,42.371223 
z"/>
<path fill="#F8F2E1" opacity="1.000000" stroke="none" 
	d="
M360.390015,51.796822 
	C359.726898,48.328724 359.385498,44.678493 358.976685,40.666756 
	C362.525085,43.594543 362.692719,47.433399 360.390015,51.796822 
z"/>
<path fill="#0F0811" opacity="1.000000" stroke="none" 
	d="
M352.006897,51.385559 
	C351.328369,51.093060 350.643585,50.456413 349.891937,49.448143 
	C350.550262,49.731480 351.275452,50.386444 352.006897,51.385559 
z"/>
<path fill="#0F0811" opacity="1.000000" stroke="none" 
	d="
M351.228455,47.626701 
	C350.936432,46.172253 350.945862,44.520428 351.028412,42.458023 
	C351.101532,42.047443 351.566589,42.034397 351.787964,42.105793 
	C351.849548,43.927902 351.689728,45.678616 351.228455,47.626701 
z"/>
<path fill="#20A948" opacity="1.000000" stroke="none" 
	d="
M203.258545,39.789925 
	C203.149612,38.888241 203.265991,37.717236 203.628891,36.296242 
	C203.744888,37.204372 203.614380,38.362492 203.258545,39.789925 
z"/>
<path fill="#E4F3F4" opacity="1.000000" stroke="none" 
	d="
M388.763885,38.234009 
	C389.109222,39.123409 389.102295,40.088017 389.101501,41.414383 
	C388.779266,41.509132 388.450867,41.242130 388.113831,40.609032 
	C388.105164,40.242935 388.080719,40.326473 388.096680,40.365234 
	C388.212311,39.705738 388.311981,39.007481 388.763885,38.234009 
z"/>
<path fill="#20A948" opacity="1.000000" stroke="none" 
	d="
M203.909698,32.619553 
	C203.583496,31.948156 203.291458,30.937693 202.999817,29.595673 
	C203.314758,30.269575 203.629303,31.275030 203.909698,32.619553 
z"/>
<path fill="#0F0811" opacity="1.000000" stroke="none" 
	d="
M357.104645,45.558777 
	C357.298218,46.236065 357.396332,47.244534 357.297729,48.438187 
	C357.070404,47.712231 357.039795,46.801090 357.104645,45.558777 
z"/>
<path fill="#EFF3EF" opacity="1.000000" stroke="none" 
	d="
M422.925171,47.525322 
	C422.546234,47.153576 422.275787,46.458630 422.007263,45.462246 
	C422.350647,45.841248 422.692169,46.521687 422.925171,47.525322 
z"/>
<path fill="#F8F2E1" opacity="1.000000" stroke="none" 
	d="
M347.607239,38.084358 
	C347.850372,38.874413 347.727295,39.692188 347.382263,40.728241 
	C347.187256,40.001701 347.214172,39.056892 347.607239,38.084358 
z"/>
<path fill="#20A948" opacity="1.000000" stroke="none" 
	d="
M190.672882,20.253345 
	C190.471466,20.700569 190.017883,21.063093 189.564316,21.425617 
	C189.550415,21.048851 189.536530,20.672085 189.713318,20.168655 
	C190.076248,20.084211 190.248489,20.126429 190.672882,20.253345 
z"/>
<path fill="#F8F2E1" opacity="1.000000" stroke="none" 
	d="
M358.403931,54.076660 
	C358.556274,53.526047 359.000366,52.898590 359.727509,52.170700 
	C359.572266,52.713451 359.133972,53.356632 358.403931,54.076660 
z"/>
<path fill="#EFF3EF" opacity="1.000000" stroke="none" 
	d="
M419.895142,53.693310 
	C419.957611,53.304272 420.258911,52.782200 420.777679,52.243820 
	C420.708099,52.671764 420.421051,53.116020 419.895142,53.693310 
z"/>
<path fill="#20A948" opacity="1.000000" stroke="none" 
	d="
M178.067505,55.251812 
	C178.408295,55.140617 178.952408,55.228954 179.700485,55.504906 
	C179.359909,55.612129 178.815353,55.531738 178.067505,55.251812 
z"/>
<path fill="#20A948" opacity="1.000000" stroke="none" 
	d="
M199.671646,29.351873 
	C199.899399,29.408287 199.548325,29.614176 199.548325,29.614176 
	C199.548325,29.614176 199.168655,29.501614 199.071625,29.400127 
	C198.974609,29.298639 199.443893,29.295460 199.671646,29.351873 
z"/>
<path fill="#0F0811" opacity="1.000000" stroke="none" 
	d="
M354.869263,51.081047 
	C355.002380,51.406601 354.803436,51.641773 354.255188,51.697968 
	C354.164612,51.357777 354.375031,51.181667 354.869263,51.081047 
z"/>
<path fill="#20A948" opacity="1.000000" stroke="none" 
	d="
M198.634811,28.790321 
	C198.448669,28.820999 198.275940,28.600243 198.091339,28.137390 
	C198.285446,28.090475 198.475037,28.305004 198.634811,28.790321 
z"/>
<path fill="#010201" opacity="1.000000" stroke="none" 
	d="
M194.159149,35.731277 
	C191.802399,44.090343 187.182449,46.992176 179.392334,45.921131 
	C177.580780,45.672062 175.581070,46.791672 174.712479,47.014069 
	C174.086151,45.034931 173.698532,42.639503 172.614365,40.617580 
	C170.018707,35.776848 170.268616,30.643869 173.694763,26.732321 
	C176.767914,23.223787 184.755707,20.896412 188.229401,23.481871 
	C191.886078,26.203512 194.707413,30.119965 194.159149,35.731277 
z"/>
<path fill="#20A948" opacity="1.000000" stroke="none" 
	d="
M173.381378,50.455246 
	C172.942368,50.341629 172.676117,50.062672 172.409851,49.783714 
	C172.525330,49.673508 172.640823,49.563301 172.756302,49.453094 
	C173.022247,49.732029 173.288177,50.010963 173.381378,50.455246 
z"/>
<path fill="#20A948" opacity="1.000000" stroke="none" 
	d="
M167.042908,45.019524 
	C167.169662,45.463680 167.276154,45.880402 167.382645,46.297119 
	C167.268814,46.036999 167.154968,45.776878 167.033295,45.287930 
	C167.025452,45.059105 167.022629,44.992088 167.042908,45.019524 
z"/>
<path fill="#20A948" opacity="1.000000" stroke="none" 
	d="
M169.981247,49.024662 
	C169.859238,48.587849 169.737228,48.151035 169.615219,47.714226 
	C169.738739,47.979542 169.862259,48.244858 169.993561,48.754944 
	C170.001358,48.999722 169.981247,49.024662 169.981247,49.024662 
z"/>
<path fill="#20A948" opacity="1.000000" stroke="none" 
	d="
M170.013947,48.989708 
	C170.137360,49.125652 170.248199,49.271610 170.359024,49.417572 
	C170.273880,49.372604 170.188721,49.327637 170.042419,49.153664 
	C169.981247,49.024662 170.001358,48.999722 170.013947,48.989708 
z"/>
<path fill="#0F0E12" opacity="1.000000" stroke="none" 
	d="
M410.040802,49.844982 
	C408.165558,46.489822 408.919281,43.713783 411.920380,42.618122 
	C413.527832,42.031235 416.732361,42.827251 417.632416,44.110256 
	C418.589691,45.474827 418.459717,48.762280 417.403625,50.122162 
	C415.568420,52.485279 412.669647,52.907455 410.040802,49.844982 
z"/>
<path fill="#1C141B" opacity="1.000000" stroke="none" 
	d="
M313.029419,42.504463 
	C315.894379,42.803970 319.490997,39.919510 321.600769,44.324417 
	C318.334412,45.883850 314.806610,48.430016 313.029419,42.504463 
z"/>
<path fill="#1C141B" opacity="1.000000" stroke="none" 
	d="
M313.029419,18.504467 
	C315.894409,18.803955 319.490997,15.919546 321.600830,20.324394 
	C318.334442,21.883835 314.806641,24.429979 313.029419,18.504467 
z"/>
<path fill="#1C141B" opacity="1.000000" stroke="none" 
	d="
M428.029358,42.505230 
	C430.894806,42.801952 434.492188,39.921326 436.598267,44.328690 
	C433.330811,45.887421 429.805023,48.422188 428.029358,42.505230 
z"/>
</svg>