<svg version="1.1" id="Layer_1" xmlns="http://www.w3.org/2000/svg" xmlns:xlink="http://www.w3.org/1999/xlink" x="0px" y="0px"
	 width="100%" viewBox="0 0 273 138" enable-background="new 0 0 273 138" xml:space="preserve">
<path fill="#020202" opacity="1.000000" stroke="none" 
	d="
M209.000000,139.000000 
	C139.333344,139.000000 70.166687,139.000000 1.000019,139.000000 
	C1.000012,93.000015 1.000012,47.000027 1.000006,1.000031 
	C91.999977,1.000021 182.999954,1.000021 273.999939,1.000010 
	C273.999969,46.999969 273.999969,92.999939 274.000000,138.999954 
	C252.500000,139.000000 231.000000,139.000000 209.000000,139.000000 
M121.070946,126.044640 
	C121.070946,126.044640 121.068520,125.980011 121.712570,125.616211 
	C123.695152,121.433502 123.527626,117.593536 119.498619,113.627380 
	C115.990242,113.103432 112.481865,112.579483 108.240486,112.110413 
	C108.213493,113.055893 108.186501,114.001366 108.023331,115.451057 
	C108.082397,115.614822 108.141464,115.778595 108.089851,116.800758 
	C108.089851,118.480743 108.089851,120.160728 108.089851,121.825348 
	C109.721725,121.825348 110.824570,121.825348 112.531471,121.431549 
	C112.691086,119.680359 112.850700,117.929161 113.757675,116.017990 
	C115.237915,117.087769 116.718163,118.157555 118.006104,119.889778 
	C118.037109,120.801498 118.068108,121.713211 118.080399,123.319489 
	C117.413216,123.901833 116.746033,124.484169 115.657890,125.089134 
	C115.371078,125.175766 115.160934,125.353233 114.374237,125.825012 
	C113.920868,125.792885 113.467491,125.760757 113.002502,125.040207 
	C112.277176,124.385567 111.551842,123.730934 109.992950,123.088501 
	C109.550095,125.261497 109.107246,127.434494 108.367065,131.066422 
	C112.822182,129.859283 115.967209,129.007126 119.696297,128.001312 
	C120.134720,127.357628 120.573143,126.713936 121.070946,126.044640 
M150.874329,115.992943 
	C152.199036,116.009331 153.523743,116.025719 155.016846,116.954758 
	C155.016846,121.196877 155.016846,125.439003 155.016846,129.766495 
	C156.650116,129.766495 157.858871,129.766495 159.725662,129.766495 
	C159.131897,124.991699 158.581589,120.566238 158.862747,116.020370 
	C161.551041,115.969582 164.765045,116.740822 164.651917,112.157883 
	C159.810776,112.157883 154.963226,112.157883 149.410187,112.308533 
	C149.310852,113.007874 149.211533,113.707207 148.291306,114.528526 
	C142.440247,110.337173 136.238434,111.254608 133.772156,116.994980 
	C131.910263,121.328621 134.337524,124.864014 137.317535,128.801605 
	C141.213425,130.932175 144.780670,130.392685 148.097855,127.601913 
	C146.367035,122.450310 142.705643,127.031494 139.757248,125.307213 
	C138.951416,123.268372 137.334747,121.105621 137.620819,119.233627 
	C137.816055,117.955925 141.200333,115.827309 142.233704,116.264702 
	C145.444519,117.623756 147.069489,115.683403 149.121109,114.977806 
	C149.449799,115.244179 149.778503,115.510544 150.874329,115.992943 
M94.317574,104.801628 
	C98.213463,106.932167 101.780685,106.392693 105.097855,103.601898 
	C103.367004,98.450333 99.705643,103.031487 96.757263,101.307220 
	C93.889191,99.761185 93.037476,96.998932 94.806534,94.752419 
	C95.974800,93.268867 98.886810,93.131775 101.039207,92.459435 
	C102.438034,92.022476 103.874855,91.707153 106.102592,91.126900 
	C99.185982,86.306328 92.660187,87.504181 90.599480,93.366898 
	C89.150291,97.489815 91.231964,101.041573 94.317574,104.801628 
M77.418327,97.635345 
	C79.525871,93.332932 78.779228,89.118423 75.209427,88.387390 
	C72.255653,87.782509 69.010056,88.602600 65.220573,88.593567 
	C64.963959,88.447334 64.719055,88.267815 64.444939,88.171310 
	C64.335686,88.132851 64.035522,88.277496 64.035309,88.339508 
	C64.015999,94.090736 64.017365,99.842041 64.017365,105.593338 
	C64.457054,105.775482 64.896744,105.957619 65.336433,106.139763 
	C66.543060,104.185150 67.749695,102.230537 69.490440,99.410721 
	C70.652649,100.484200 71.937889,101.853348 73.407722,102.982124 
	C75.181084,104.344009 77.111053,105.501976 79.948814,107.401100 
	C78.496613,103.125465 77.613731,100.526062 77.418327,97.635345 
M85.415298,121.637703 
	C87.526436,117.336128 86.781776,113.120262 83.211029,112.388062 
	C80.257042,111.782349 77.010612,112.602776 73.220566,112.593559 
	C72.963966,112.447319 72.719086,112.267792 72.444984,112.171295 
	C72.335716,112.132835 72.035561,112.277443 72.035339,112.339432 
	C72.016029,118.090416 72.017387,123.841476 72.017387,129.592529 
	C72.456856,129.774857 72.896324,129.957199 73.335793,130.139526 
	C74.542664,128.185638 75.749535,126.231735 77.490753,123.412743 
	C78.651497,124.484146 79.937172,125.852058 81.406647,126.980652 
	C83.180489,128.343002 85.110199,129.502441 87.955948,131.408401 
	C86.497604,127.127190 85.612274,124.528160 85.415298,121.637703 
M200.415283,121.637711 
	C202.526428,117.336136 201.781784,113.120300 198.211044,112.388092 
	C195.257065,111.782364 192.010635,112.602768 188.220581,112.593559 
	C187.963974,112.447327 187.719101,112.267807 187.444992,112.171288 
	C187.335724,112.132828 187.035553,112.277435 187.035339,112.339417 
	C187.016037,118.090401 187.017395,123.841461 187.017395,129.592514 
	C187.456879,129.774857 187.896347,129.957199 188.335831,130.139542 
	C189.542694,128.185638 190.749542,126.231743 192.490753,123.412750 
	C193.651489,124.484161 194.937164,125.852074 196.406631,126.980659 
	C198.180481,128.343033 200.110199,129.502441 202.955963,131.408417 
	C201.497726,127.127563 200.612335,124.528343 200.415283,121.637711 
M66.698997,122.940567 
	C67.487640,122.019356 68.276291,121.098145 69.472351,119.819847 
	C69.361145,118.418839 69.249939,117.017838 69.002396,114.796181 
	C66.210052,110.440269 61.930176,112.052979 57.289772,112.286598 
	C57.045231,113.810722 56.800690,115.334854 55.913219,117.335907 
	C55.683159,121.440453 55.453098,125.544991 55.223038,129.649536 
	C56.413746,129.716187 57.604450,129.782852 59.072239,129.865005 
	C59.072239,127.531052 59.072239,125.731903 59.888474,123.876755 
	C61.905651,123.592987 63.922825,123.309227 66.698997,122.940567 
M91.178658,111.945648 
	C91.190880,114.631218 91.203102,117.316780 91.006599,120.827927 
	C90.574936,123.770569 90.143265,126.713203 89.691536,129.792587 
	C94.990448,129.792587 99.408043,129.792587 103.767998,129.792587 
	C105.345100,125.475601 102.553955,126.032204 100.014076,125.751938 
	C98.145103,125.545700 94.397934,127.778564 95.813576,122.799767 
	C96.533852,122.781723 97.254128,122.763672 98.770470,122.909828 
	C99.843300,122.831993 100.916122,122.754158 102.599976,122.680634 
	C102.750626,122.115303 102.901276,121.549980 103.602455,120.418816 
	C103.112228,119.896545 102.651009,118.960236 102.126762,118.923515 
	C99.830002,118.762611 97.514992,118.862244 95.062584,118.189529 
	C95.047401,117.502762 95.032219,116.815994 95.899597,116.035904 
	C98.263924,115.969498 100.628250,115.903084 103.762405,115.792511 
	C103.506973,114.548775 103.251541,113.305038 102.098083,111.864746 
	C98.731834,111.930283 95.365578,111.995827 91.178658,111.945648 
M112.062592,94.189529 
	C112.047409,93.502762 112.032227,92.815994 112.899597,92.035896 
	C115.263924,91.969490 117.628250,91.903084 120.762405,91.792511 
	C120.506973,90.548775 120.251541,89.305046 119.098083,87.864738 
	C115.731834,87.930275 112.365578,87.995819 108.178650,87.945648 
	C108.190872,90.631218 108.203094,93.316780 108.006592,96.827934 
	C107.574928,99.770576 107.143265,102.713219 106.691544,105.792595 
	C111.990463,105.792595 116.408058,105.792595 120.767998,105.792595 
	C122.345100,101.475586 119.553932,102.032204 117.014061,101.751938 
	C115.145096,101.545700 111.397926,103.778549 112.813576,98.799767 
	C113.533852,98.781723 114.254128,98.763672 115.770470,98.909828 
	C116.843300,98.831993 117.916122,98.754158 119.599991,98.680634 
	C119.750641,98.115311 119.901291,97.549988 120.602455,96.418816 
	C120.112228,95.896545 119.651009,94.960243 119.126762,94.923523 
	C116.830002,94.762627 114.514992,94.862244 112.062592,94.189529 
M109.590569,43.271633 
	C108.192719,43.051525 106.794868,42.831413 105.154831,42.573166 
	C105.154831,37.279861 105.154831,32.272106 105.154831,26.986937 
	C103.583046,27.087414 102.308670,27.168879 100.272209,27.595364 
	C100.241890,40.820217 100.196167,54.045101 100.218048,67.269867 
	C100.219414,68.096931 100.750122,68.923134 101.892487,69.993446 
	C104.268646,69.935646 106.644806,69.877846 109.858421,69.600807 
	C109.901672,64.825912 109.944916,60.051014 110.847931,55.075760 
	C112.902084,54.997162 114.956245,54.918564 117.801933,54.980968 
	C118.871010,54.934357 119.940079,54.887745 121.808189,55.000149 
	C128.594193,55.545883 135.556961,49.152607 135.910141,41.693470 
	C136.235397,34.824657 130.938477,27.784727 124.187401,27.163311 
	C118.632339,26.651985 112.992752,27.058981 107.064087,27.058981 
	C107.064087,31.313807 106.997696,35.109516 107.118080,38.899292 
	C107.143250,39.691647 107.857498,40.462112 108.254204,41.242664 
	C108.850288,40.501492 109.543839,39.816170 110.010880,39.001057 
	C110.369354,38.375427 110.442268,37.586174 110.653091,36.830559 
	C114.444847,36.830559 118.020409,36.382896 121.393196,37.015839 
	C123.128914,37.341572 124.503372,39.592342 126.041084,40.973225 
	C124.513313,42.368740 123.158440,44.627766 121.420914,44.975670 
	C118.054504,45.649727 114.472755,45.248295 110.478348,45.011658 
	C110.239105,44.719173 109.999855,44.426689 109.590569,43.271633 
M220.871063,45.412556 
	C220.888458,44.985355 220.905853,44.558155 220.932587,43.378078 
	C220.538834,42.456432 220.145065,41.534782 219.426010,40.072395 
	C213.945251,28.894203 202.279785,23.972023 191.629410,28.343773 
	C181.410248,32.538528 175.778351,43.710377 179.041946,53.313225 
	C183.409348,53.145172 183.910629,53.708702 183.525055,58.261364 
	C182.676117,57.213493 181.789047,56.118530 180.112106,54.048618 
	C181.067215,63.070332 189.756699,69.772141 198.952377,69.945099 
	C210.313187,70.158783 219.311493,62.331493 220.921539,50.499065 
	C220.921539,50.499065 220.876266,50.025131 221.048889,49.272366 
	C220.991409,48.507088 220.933914,47.741810 220.921768,46.503300 
	C220.921768,46.503300 220.784149,46.048256 220.871063,45.412556 
M234.156799,39.968689 
	C238.567413,43.160294 235.887909,37.108707 237.900909,37.054058 
	C241.507217,36.883938 245.219940,36.480019 248.767975,37.068726 
	C250.342545,37.329987 251.584412,39.596359 252.977295,40.952576 
	C251.605576,42.331165 250.455185,44.369587 248.806534,44.922653 
	C246.708572,45.626453 244.150375,44.833813 241.902985,45.267982 
	C240.736298,45.493370 239.811554,46.971165 238.777512,47.883183 
	C239.764252,48.667171 240.813660,50.184284 241.726730,50.106232 
	C245.374191,49.794445 247.365448,51.106358 247.330780,54.764938 
	C255.525208,55.160358 261.711182,50.223049 262.798126,42.742012 
	C263.797638,35.862572 258.687073,28.165615 251.658066,27.290945 
	C245.994781,26.586222 240.173859,27.148235 234.060272,27.148235 
	C234.060272,31.483797 234.060272,35.278744 234.156799,39.968689 
M55.593369,89.014587 
	C48.327103,80.885506 39.004257,84.903465 29.862133,84.048981 
	C30.094154,89.232704 30.293028,93.675827 30.491901,98.118950 
	C31.064322,98.130981 31.636744,98.143005 32.209164,98.155029 
	C32.725449,96.750885 33.241734,95.346741 33.782642,93.875618 
	C37.519131,93.875618 41.100224,93.416145 44.466187,94.067841 
	C46.170456,94.397820 47.486115,96.734940 48.977470,98.164604 
	C47.532482,99.476524 46.283489,101.410896 44.593014,101.943207 
	C42.467991,102.612335 39.939701,101.882561 37.669621,102.261208 
	C36.600517,102.439537 35.727921,103.795944 34.766277,104.618530 
	C35.670311,105.489586 36.446026,106.588737 37.504955,107.184456 
	C39.744129,108.444122 42.131245,109.440811 44.457676,110.545364 
	C44.301510,111.013794 44.145340,111.482231 43.989174,111.950661 
	C49.693577,112.348640 53.999760,109.811615 56.853413,105.068329 
	C59.982841,99.866661 59.545982,94.596474 55.593369,89.014587 
M77.758484,59.829937 
	C82.246552,59.829937 86.734619,59.829937 91.979538,59.829937 
	C86.632477,48.157166 81.498032,36.948547 75.914642,24.759863 
	C71.427376,34.573475 67.402145,43.376610 63.138542,52.701065 
	C68.289078,52.477253 73.262558,54.870003 76.279396,48.928951 
	C77.591347,51.847965 78.654175,54.212700 79.691643,56.520988 
	C77.048141,57.091633 74.952171,57.544083 72.856209,57.996536 
	C72.944649,58.520172 73.033089,59.043808 73.121529,59.567444 
	C74.358360,59.654934 75.595200,59.742428 77.758484,59.829937 
M151.730423,63.425018 
	C151.730423,65.504890 151.730423,67.584763 151.730423,69.664856 
	C155.304123,69.664856 158.045746,69.664856 160.991425,69.664856 
	C160.991425,61.868790 160.991425,54.411293 160.991425,46.717419 
	C159.656464,46.290691 158.305435,45.858829 156.548798,45.297314 
	C156.548798,40.928020 156.548798,36.656673 156.548798,31.814373 
	C152.834259,31.814373 149.591705,31.814373 146.500427,31.814373 
	C146.031479,29.847244 145.702408,28.466846 145.431793,27.331657 
	C142.779465,27.331657 140.516159,27.331657 138.199081,27.331657 
	C138.199081,30.575012 138.199081,33.475445 138.199081,36.963264 
	C142.766037,36.963264 147.007019,36.963264 151.729980,36.963264 
	C151.729980,45.847900 151.729980,54.143848 151.730423,63.425018 
M32.051563,36.632736 
	C32.051357,28.516733 31.604307,28.019745 22.671844,26.293653 
	C22.671844,38.168514 22.671844,50.022316 22.671844,61.904404 
	C28.574146,61.904404 34.160622,61.904404 39.909672,61.904404 
	C40.605091,54.651928 34.462051,59.603607 32.051563,56.618580 
	C32.051563,50.800404 32.051563,44.198334 32.051563,36.632736 
M232.205505,31.643309 
	C232.510223,27.960888 231.630432,25.786133 227.118530,27.769104 
	C227.118530,34.837330 227.118515,41.806114 227.118515,48.774902 
	C227.118515,55.705276 227.118530,62.635651 227.118530,69.733856 
	C230.667862,69.733856 233.572464,69.733856 237.081512,69.733856 
	C237.081512,64.757050 237.081512,60.037354 237.081512,55.845947 
	C239.856140,53.893867 243.609482,56.826855 245.423050,52.426445 
	C242.348892,52.118496 239.816696,51.864834 237.183411,51.601044 
	C237.036346,48.692036 236.905014,46.094040 236.779663,43.614540 
	C235.065536,43.127567 233.711166,42.742802 232.205948,42.315182 
	C232.205948,38.895073 232.205948,35.745857 232.205505,31.643309 
M23.118565,99.504089 
	C23.118565,108.578186 23.118565,117.652290 23.118565,126.660774 
	C26.806898,126.660774 29.716234,126.660774 33.224583,126.660774 
	C33.224583,121.615654 33.224583,116.908936 33.224583,112.398689 
	C36.275440,112.014771 38.692181,111.710648 41.108917,111.406532 
	C41.120117,110.824310 41.131313,110.242088 41.142513,109.659874 
	C38.478802,109.254723 35.815090,108.849579 32.907188,108.407288 
	C32.907188,105.682861 32.907188,103.220268 32.907188,100.500031 
	C31.317869,100.172401 29.937628,99.887878 28.150101,99.519402 
	C28.150101,94.395798 28.150101,89.469261 28.150101,84.334244 
	C26.309620,84.334244 24.939371,84.334244 23.118713,84.334244 
	C23.118713,89.258987 23.118713,93.882584 23.118565,99.504089 
M68.339851,54.066124 
	C66.202576,54.479923 62.902798,54.183510 62.137806,55.435680 
	C59.436497,59.857292 57.603390,64.809311 55.428219,69.588455 
	C56.084148,69.823296 56.244987,69.938324 56.395939,69.926552 
	C60.394585,69.614677 64.172173,70.663383 68.228783,67.486282 
	C70.814453,65.461205 76.240738,66.843094 80.368652,67.097794 
	C82.508514,67.229836 84.594643,68.232674 87.892273,69.184952 
	C89.200012,68.603729 91.861732,67.420753 94.449104,66.270813 
	C94.016411,62.042828 92.005264,60.758652 88.138115,60.979359 
	C82.307030,61.312160 76.442902,61.066124 70.272133,61.066124 
	C71.304749,58.400738 72.061798,56.446629 72.984039,54.066135 
	C71.428871,54.066135 70.311409,54.066135 68.339851,54.066124 
M158.120300,41.165581 
	C158.609100,42.213139 159.097916,43.260700 159.586716,44.308262 
	C159.981369,44.190750 160.376022,44.073238 160.770660,43.955723 
	C161.054886,41.736465 161.339111,39.517204 161.613434,37.375198 
	C172.836945,35.667908 173.352188,35.252262 174.324432,27.535347 
	C165.554504,27.535347 156.758423,27.535347 147.962357,27.535347 
	C147.883820,28.136616 147.805283,28.737885 147.726746,29.339151 
	C151.110352,29.727364 154.493942,30.115576 158.116608,30.531216 
	C158.116608,33.949646 158.116608,37.094662 158.120300,41.165581 
M27.729788,70.007202 
	C36.457249,70.007202 45.184711,70.007202 53.760445,70.007202 
	C53.760445,66.427940 53.760445,63.505035 53.760445,60.393929 
	C50.063023,60.393929 46.637390,60.393929 43.080669,60.393929 
	C42.794353,61.885372 42.527863,63.273548 42.195232,65.006256 
	C36.402142,65.006256 30.825991,65.006256 23.954544,65.006256 
	C25.201538,67.215172 25.988142,68.608566 27.729788,70.007202 
M181.561737,115.480316 
	C178.967606,111.473007 175.222214,110.960541 171.238388,112.624939 
	C167.331543,114.257179 164.687820,117.863876 166.128510,121.728302 
	C167.322296,124.930458 170.427994,128.291870 173.536865,129.684021 
	C177.295959,131.367325 180.659286,128.603531 183.092606,125.220222 
	C185.673248,121.632072 182.473709,119.119194 181.561737,115.480316 
M82.660385,94.168396 
	C82.660385,96.313454 82.825233,98.474304 82.621689,100.599869 
	C82.317421,103.777290 83.322426,105.573250 87.432617,105.419197 
	C86.584007,100.314445 85.763763,95.380333 84.707802,89.028275 
	C83.683762,91.193596 83.172325,92.275024 82.660385,94.168396 
M128.594040,115.847748 
	C126.686928,114.308807 125.897942,114.445145 125.722359,116.633133 
	C125.498238,119.426056 125.318832,122.308647 125.782387,125.040207 
	C126.087639,126.839005 127.560654,128.439636 128.510773,130.128998 
	C129.173645,129.829330 129.836517,129.529663 130.499390,129.229980 
	C129.695496,124.960289 128.891586,120.690598 128.594040,115.847748 
z"/>
<path fill="#20AA49" opacity="1.000000" stroke="none" 
	d="
M220.783783,50.954788 
	C219.311493,62.331493 210.313187,70.158783 198.952377,69.945099 
	C189.756699,69.772141 181.067215,63.070332 180.112106,54.048618 
	C181.789047,56.118530 182.676117,57.213493 183.525055,58.261364 
	C183.910629,53.708702 183.409348,53.145172 179.041946,53.313225 
	C175.778351,43.710377 181.410248,32.538528 191.629410,28.343773 
	C202.279785,23.972023 213.945251,28.894203 219.241028,40.445896 
	C217.498886,39.424049 215.725159,38.203575 214.428497,36.597851 
	C211.506500,32.979355 209.918732,32.147018 208.345428,32.995029 
	C210.943375,36.090523 213.678635,39.349625 216.776733,43.041061 
	C217.618439,43.262302 219.270859,43.696629 220.923264,44.130959 
	C220.905853,44.558155 220.888458,44.985355 220.699509,45.828644 
	C220.384476,46.585361 220.500626,46.829296 220.876419,46.976532 
	C220.933914,47.741810 220.991409,48.507088 220.820984,49.728302 
	C220.369766,50.490429 220.433334,50.747280 220.783783,50.954788 
M207.170074,39.530708 
	C204.149139,36.258793 196.870346,35.843731 192.838943,38.713490 
	C187.667297,42.394939 186.486710,48.934826 189.640869,54.666401 
	C190.744736,56.672306 191.099731,59.090328 191.704895,61.026447 
	C192.629318,60.793037 194.616867,59.723030 196.458557,59.932899 
	C201.946167,60.558208 207.139420,58.722019 209.563690,54.720852 
	C212.305878,50.195042 211.641434,44.984646 207.170074,39.530708 
z"/>
<path fill="#F6F8F6" opacity="1.000000" stroke="none" 
	d="
M117.010399,54.839966 
	C114.956245,54.918564 112.902084,54.997162 110.119202,55.406696 
	C109.267296,60.431770 109.144127,65.125908 109.020966,69.820038 
	C106.644806,69.877846 104.268646,69.935646 101.461273,69.418510 
	C101.031471,54.979164 101.032883,41.114754 101.034302,27.250343 
	C102.308670,27.168879 103.583046,27.087414 105.154831,26.986937 
	C105.154831,32.272106 105.154831,37.279861 105.154831,42.573166 
	C106.794868,42.831413 108.192719,43.051525 109.441849,43.987671 
	C109.293121,46.843342 109.293121,48.982967 109.293121,51.122597 
	C109.690750,51.151043 110.088379,51.179493 110.486008,51.207939 
	C110.650749,49.236145 110.815498,47.264347 110.980240,45.292549 
	C114.472755,45.248295 118.054504,45.649727 121.420914,44.975670 
	C123.158440,44.627766 124.513313,42.368740 126.041084,40.973228 
	C124.503372,39.592342 123.128914,37.341572 121.393196,37.015839 
	C118.020409,36.382896 114.444847,36.830559 110.653091,36.830559 
	C110.442268,37.586174 110.369354,38.375427 110.010880,39.001057 
	C109.543839,39.816170 108.850288,40.501492 108.254204,41.242661 
	C107.857498,40.462112 107.143250,39.691647 107.118080,38.899292 
	C106.997696,35.109516 107.064087,31.313807 107.064087,27.058981 
	C112.992752,27.058981 118.632339,26.651985 124.187401,27.163311 
	C130.938477,27.784727 136.235397,34.824657 135.910141,41.693470 
	C135.556961,49.152607 128.594193,55.545883 121.406548,54.568722 
	C121.004906,53.041954 121.004906,51.946613 121.004906,50.851269 
	C120.537903,50.627323 120.070900,50.403378 119.603897,50.179432 
	C118.739395,51.732944 117.874901,53.286453 117.010399,54.839966 
z"/>
<path fill="#21AC49" opacity="1.000000" stroke="none" 
	d="
M234.108536,39.521191 
	C234.060272,35.278744 234.060272,31.483797 234.060272,27.148235 
	C240.173859,27.148235 245.994781,26.586222 251.658066,27.290945 
	C258.687073,28.165615 263.797638,35.862572 262.798126,42.742012 
	C261.711182,50.223049 255.525208,55.160358 247.330780,54.764938 
	C247.365448,51.106358 245.374191,49.794445 241.726730,50.106232 
	C240.813660,50.184284 239.764252,48.667171 238.777527,47.883183 
	C239.811554,46.971165 240.736298,45.493370 241.902985,45.267982 
	C244.150375,44.833813 246.708572,45.626453 248.806534,44.922653 
	C250.455185,44.369587 251.605576,42.331165 252.977295,40.952576 
	C251.584412,39.596359 250.342545,37.329987 248.767975,37.068726 
	C245.219940,36.480019 241.507217,36.883938 237.900909,37.054058 
	C235.887909,37.108707 238.567413,43.160294 234.108536,39.521191 
z"/>
<path fill="#21AC49" opacity="1.000000" stroke="none" 
	d="
M55.819832,89.313431 
	C59.545982,94.596474 59.982841,99.866661 56.853413,105.068329 
	C53.999760,109.811615 49.693577,112.348640 43.989174,111.950661 
	C44.145340,111.482231 44.301510,111.013794 44.457676,110.545364 
	C42.131245,109.440811 39.744129,108.444122 37.504955,107.184456 
	C36.446026,106.588737 35.670311,105.489586 34.766277,104.618530 
	C35.727921,103.795944 36.600517,102.439537 37.669621,102.261208 
	C39.939701,101.882561 42.467991,102.612335 44.593014,101.943207 
	C46.283489,101.410896 47.532482,99.476524 48.977470,98.164604 
	C47.486115,96.734940 46.170456,94.397820 44.466187,94.067841 
	C41.100224,93.416145 37.519131,93.875618 33.782642,93.875618 
	C33.241734,95.346741 32.725449,96.750885 32.209164,98.155029 
	C31.636744,98.143005 31.064322,98.130981 30.491901,98.118950 
	C30.293028,93.675827 30.094154,89.232704 29.862133,84.048981 
	C39.004257,84.903465 48.327103,80.885506 55.819832,89.313431 
z"/>
<path fill="#F1F4F1" opacity="1.000000" stroke="none" 
	d="
M77.295258,59.829926 
	C75.595200,59.742428 74.358360,59.654934 73.121529,59.567444 
	C73.033089,59.043808 72.944649,58.520172 72.856209,57.996536 
	C74.952171,57.544083 77.048141,57.091633 79.691643,56.520988 
	C78.654175,54.212700 77.591347,51.847965 76.279396,48.928951 
	C73.262558,54.870003 68.289078,52.477253 63.138542,52.701065 
	C67.402145,43.376610 71.427376,34.573475 75.914642,24.759863 
	C81.498032,36.948547 86.632477,48.157166 91.979538,59.829937 
	C86.734619,59.829937 82.246552,59.829937 77.295258,59.829926 
z"/>
<path fill="#21AC49" opacity="1.000000" stroke="none" 
	d="
M151.730194,62.932411 
	C151.729980,54.143848 151.729980,45.847900 151.729980,36.963264 
	C147.007019,36.963264 142.766037,36.963264 138.199081,36.963264 
	C138.199081,33.475445 138.199081,30.575012 138.199081,27.331657 
	C140.516159,27.331657 142.779465,27.331657 145.431793,27.331657 
	C145.702408,28.466846 146.031479,29.847244 146.500427,31.814373 
	C149.591705,31.814373 152.834259,31.814373 156.548798,31.814373 
	C156.548798,36.656673 156.548798,40.928020 156.548798,45.297314 
	C158.305435,45.858829 159.656464,46.290691 160.991425,46.717419 
	C160.991425,54.411293 160.991425,61.868790 160.991425,69.664856 
	C158.045746,69.664856 155.304123,69.664856 151.730423,69.664856 
	C151.730423,67.584763 151.730423,65.504890 151.730194,62.932411 
z"/>
<path fill="#ECF4F4" opacity="1.000000" stroke="none" 
	d="
M32.051563,37.114498 
	C32.051563,44.198334 32.051563,50.800404 32.051563,56.618580 
	C34.462051,59.603607 40.605091,54.651928 39.909672,61.904404 
	C34.160622,61.904404 28.574146,61.904404 22.671844,61.904404 
	C22.671844,50.022316 22.671844,38.168514 22.671844,26.293653 
	C31.604307,28.019745 32.051357,28.516733 32.051563,37.114498 
z"/>
<path fill="#20AB4A" opacity="1.000000" stroke="none" 
	d="
M232.205719,32.119976 
	C232.205948,35.745857 232.205948,38.895073 232.205948,42.315182 
	C233.711166,42.742802 235.065536,43.127567 236.779663,43.614540 
	C236.905014,46.094040 237.036346,48.692036 237.183411,51.601044 
	C239.816696,51.864834 242.348892,52.118496 245.423050,52.426445 
	C243.609482,56.826855 239.856140,53.893867 237.081512,55.845947 
	C237.081512,60.037354 237.081512,64.757050 237.081512,69.733856 
	C233.572464,69.733856 230.667862,69.733856 227.118530,69.733856 
	C227.118530,62.635651 227.118515,55.705276 227.118515,48.774902 
	C227.118515,41.806114 227.118530,34.837330 227.118530,27.769104 
	C231.630432,25.786133 232.510223,27.960888 232.205719,32.119976 
z"/>
<path fill="#20AB4A" opacity="1.000000" stroke="none" 
	d="
M23.118639,99.005135 
	C23.118713,93.882584 23.118713,89.258987 23.118713,84.334244 
	C24.939371,84.334244 26.309620,84.334244 28.150101,84.334244 
	C28.150101,89.469261 28.150101,94.395798 28.150101,99.519402 
	C29.937628,99.887878 31.317869,100.172401 32.907188,100.500031 
	C32.907188,103.220268 32.907188,105.682861 32.907188,108.407288 
	C35.815090,108.849579 38.478802,109.254723 41.142513,109.659874 
	C41.131313,110.242088 41.120117,110.824310 41.108917,111.406532 
	C38.692181,111.710648 36.275440,112.014771 33.224583,112.398689 
	C33.224583,116.908936 33.224583,121.615654 33.224583,126.660774 
	C29.716234,126.660774 26.806898,126.660774 23.118565,126.660774 
	C23.118565,117.652290 23.118565,108.578186 23.118639,99.005135 
z"/>
<path fill="#F6F7F5" opacity="1.000000" stroke="none" 
	d="
M68.766899,54.066132 
	C70.311409,54.066135 71.428871,54.066135 72.984039,54.066135 
	C72.061798,56.446629 71.304749,58.400738 70.272133,61.066124 
	C76.442902,61.066124 82.307030,61.312160 88.138115,60.979359 
	C92.005264,60.758652 94.016411,62.042828 94.449104,66.270813 
	C91.861732,67.420753 89.200012,68.603729 87.892273,69.184952 
	C84.594643,68.232674 82.508514,67.229836 80.368652,67.097794 
	C76.240738,66.843094 70.814453,65.461205 68.228783,67.486282 
	C64.172173,70.663383 60.394585,69.614677 56.395939,69.926552 
	C56.244987,69.938324 56.084148,69.823296 55.428219,69.588455 
	C57.603390,64.809311 59.436497,59.857292 62.137806,55.435680 
	C62.902798,54.183510 66.202576,54.479923 68.766899,54.066132 
z"/>
<path fill="#20AA4A" opacity="1.000000" stroke="none" 
	d="
M158.118454,40.702629 
	C158.116608,37.094662 158.116608,33.949646 158.116608,30.531216 
	C154.493942,30.115576 151.110352,29.727364 147.726746,29.339151 
	C147.805283,28.737885 147.883820,28.136616 147.962357,27.535347 
	C156.758423,27.535347 165.554504,27.535347 174.324432,27.535347 
	C173.352188,35.252262 172.836945,35.667908 161.613434,37.375198 
	C161.339111,39.517204 161.054886,41.736465 160.770660,43.955723 
	C160.376022,44.073238 159.981369,44.190750 159.586716,44.308262 
	C159.097916,43.260700 158.609100,42.213139 158.118454,40.702629 
z"/>
<path fill="#F9FBF8" opacity="1.000000" stroke="none" 
	d="
M27.252268,70.004578 
	C25.988142,68.608566 25.201538,67.215172 23.954544,65.006256 
	C30.825991,65.006256 36.402142,65.006256 42.195232,65.006256 
	C42.527863,63.273548 42.794353,61.885372 43.080669,60.393929 
	C46.637390,60.393929 50.063023,60.393929 53.760445,60.393929 
	C53.760445,63.505035 53.760445,66.427940 53.760445,70.007202 
	C45.184711,70.007202 36.457249,70.007202 27.252268,70.004578 
z"/>
<path fill="#EEF0EA" opacity="1.000000" stroke="none" 
	d="
M181.657349,115.811798 
	C182.473709,119.119194 185.673248,121.632072 183.092606,125.220222 
	C180.659286,128.603531 177.295959,131.367325 173.536865,129.684021 
	C170.427994,128.291870 167.322296,124.930458 166.128510,121.728302 
	C164.687820,117.863876 167.331543,114.257179 171.238388,112.624939 
	C175.222214,110.960541 178.967606,111.473007 181.657349,115.811798 
M178.230072,117.125671 
	C173.839569,115.284958 170.233597,116.573395 170.210495,120.309273 
	C170.199997,122.007736 171.255112,124.650932 172.528320,125.181145 
	C174.111221,125.840309 177.416229,125.414993 178.174713,124.266960 
	C179.234985,122.662155 178.629349,119.956718 178.230072,117.125671 
z"/>
<path fill="#F7FEF9" opacity="1.000000" stroke="none" 
	d="
M119.992577,91.836670 
	C117.628250,91.903084 115.263924,91.969490 112.195694,92.234314 
	C111.730057,93.244278 111.968323,94.055824 112.206589,94.867363 
	C114.514992,94.862244 116.830002,94.762627 119.126762,94.923523 
	C119.651009,94.960243 120.112228,95.896545 120.092422,96.829895 
	C119.384575,97.719421 119.186760,98.197876 118.988953,98.676323 
	C117.916122,98.754158 116.843300,98.831993 115.211090,98.573273 
	C113.798752,98.459198 112.945793,98.681671 112.092827,98.904144 
	C111.397926,103.778549 115.145096,101.545700 117.014061,101.751938 
	C119.553932,102.032204 122.345100,101.475586 120.767998,105.792595 
	C116.408058,105.792595 111.990463,105.792595 106.691544,105.792595 
	C107.143265,102.713219 107.574928,99.770576 108.442215,96.341766 
	C108.918335,93.257523 108.958824,90.659439 108.999329,88.061363 
	C112.365578,87.995819 115.731834,87.930275 119.548691,88.340561 
	C119.997063,89.823143 119.994820,90.829903 119.992577,91.836670 
z"/>
<path fill="#F7FEF9" opacity="1.000000" stroke="none" 
	d="
M101.988953,122.676323 
	C100.916122,122.754158 99.843300,122.831993 98.211090,122.573280 
	C96.798759,122.459206 95.945793,122.681679 95.092827,122.904144 
	C94.397934,127.778564 98.145103,125.545700 100.014076,125.751938 
	C102.553955,126.032204 105.345100,125.475601 103.767998,129.792587 
	C99.408043,129.792587 94.990448,129.792587 89.691536,129.792587 
	C90.143265,126.713203 90.574936,123.770569 91.442223,120.341766 
	C91.918343,117.257523 91.958839,114.659439 91.999329,112.061371 
	C95.365578,111.995827 98.731834,111.930283 102.548691,112.340561 
	C102.997063,113.823143 102.994820,114.829903 102.992577,115.836670 
	C100.628250,115.903084 98.263924,115.969498 95.195694,116.234314 
	C94.730064,117.244278 94.968330,118.055817 95.206596,118.867363 
	C97.514992,118.862244 99.830002,118.762611 102.126762,118.923515 
	C102.651009,118.960236 103.112228,119.896545 103.092422,120.829895 
	C102.384575,121.719421 102.186760,122.197876 101.988953,122.676323 
z"/>
<path fill="#FFFBEC" opacity="1.000000" stroke="none" 
	d="
M69.064926,120.176926 
	C68.276291,121.098145 67.487640,122.019356 65.964294,122.907822 
	C63.058743,122.538368 60.134628,117.816467 59.072239,123.932755 
	C59.072239,125.731903 59.072239,127.531052 59.072239,129.865005 
	C57.604450,129.782852 56.413746,129.716187 55.223038,129.649536 
	C55.453098,125.544991 55.683159,121.440453 56.495113,117.350250 
	C57.400974,115.598488 57.724945,113.832390 58.048912,112.066292 
	C61.930176,112.052979 66.210052,110.440269 68.999214,115.516373 
	C69.018997,117.550018 69.041962,118.863472 69.064926,120.176926 
M63.871540,117.610397 
	C63.954506,118.364441 64.037468,119.118492 64.120430,119.872536 
	C64.729591,119.471497 65.338745,119.070465 65.947906,118.669426 
	C65.415977,118.158806 64.884048,117.648186 63.871540,117.610397 
z"/>
<path fill="#E5EEE8" opacity="1.000000" stroke="none" 
	d="
M199.726944,121.929138 
	C200.612335,124.528343 201.497726,127.127563 202.955963,131.408417 
	C200.110199,129.502441 198.180481,128.343033 196.406631,126.980659 
	C194.937164,125.852074 193.651489,124.484161 192.490753,123.412750 
	C190.749542,126.231743 189.542694,128.185638 188.335831,130.139542 
	C187.896347,129.957199 187.456879,129.774857 187.017395,129.592514 
	C187.017395,123.841461 187.016037,118.090401 187.035339,112.339417 
	C187.035553,112.277435 187.335724,112.132828 187.444992,112.171288 
	C187.719101,112.267807 187.963974,112.447327 188.585938,113.109436 
	C188.982941,114.461769 189.014603,115.298218 189.029236,116.504791 
	C190.807419,122.430031 194.334808,119.884621 197.753632,118.973953 
	C198.533707,120.138374 199.130325,121.033752 199.726944,121.929138 
z"/>
<path fill="#E5EEE8" opacity="1.000000" stroke="none" 
	d="
M84.726944,121.929131 
	C85.612274,124.528160 86.497604,127.127190 87.955948,131.408401 
	C85.110199,129.502441 83.180489,128.343002 81.406647,126.980652 
	C79.937172,125.852058 78.651497,124.484146 77.490753,123.412743 
	C75.749535,126.231735 74.542664,128.185638 73.335793,130.139526 
	C72.896324,129.957199 72.456856,129.774857 72.017387,129.592529 
	C72.017387,123.841476 72.016029,118.090416 72.035339,112.339432 
	C72.035561,112.277443 72.335716,112.132835 72.444984,112.171295 
	C72.719086,112.267792 72.963966,112.447319 73.585922,113.109436 
	C73.982994,114.461708 74.014717,115.298103 74.029327,116.504646 
	C75.807304,122.430092 79.334755,119.884621 82.753616,118.973946 
	C83.533722,120.138359 84.130333,121.033745 84.726944,121.929131 
z"/>
<path fill="#E5EEE8" opacity="1.000000" stroke="none" 
	d="
M76.730850,97.926651 
	C77.613731,100.526062 78.496613,103.125465 79.948814,107.401100 
	C77.111053,105.501976 75.181084,104.344009 73.407722,102.982124 
	C71.937889,101.853348 70.652649,100.484200 69.490440,99.410721 
	C67.749695,102.230537 66.543060,104.185150 65.336433,106.139763 
	C64.896744,105.957619 64.457054,105.775482 64.017365,105.593338 
	C64.017365,99.842041 64.015999,94.090736 64.035309,88.339508 
	C64.035522,88.277496 64.335686,88.132851 64.444939,88.171310 
	C64.719055,88.267815 64.963959,88.447334 65.585922,89.109436 
	C65.983002,90.461708 66.014717,91.298103 66.029327,92.504646 
	C67.807304,98.430092 71.334755,95.884621 74.753647,94.974014 
	C75.535057,96.137627 76.132957,97.032143 76.730850,97.926651 
z"/>
<path fill="#FCFAFA" opacity="1.000000" stroke="none" 
	d="
M113.014122,125.728622 
	C113.467491,125.760757 113.920868,125.792885 114.927910,125.799149 
	C115.803711,125.641647 116.002800,125.406059 116.078850,125.066513 
	C116.746033,124.484169 117.413216,123.901833 118.287064,122.787079 
	C118.395294,121.245560 118.296852,120.236443 118.198410,119.227333 
	C116.718163,118.157555 115.237915,117.087769 113.162415,116.026215 
	C112.567146,116.034439 112.101524,116.047447 111.712540,116.015137 
	C110.282555,115.969337 109.241539,115.955849 108.200531,115.942368 
	C108.141464,115.778595 108.082397,115.614822 108.313980,114.980927 
	C108.727577,113.692375 108.850533,112.873962 108.973488,112.055542 
	C112.481865,112.579483 115.990242,113.103432 119.771149,114.327194 
	C120.385292,118.678017 120.726906,122.329010 121.068520,125.980011 
	C121.068520,125.980011 121.070946,126.044640 120.757843,126.157669 
	C120.000572,126.898773 119.556404,127.526863 119.112244,128.154953 
	C115.967209,129.007126 112.822182,129.859283 108.367065,131.066422 
	C109.107246,127.434494 109.550095,125.261497 110.475967,123.454208 
	C111.644035,124.456154 112.329079,125.092392 113.014122,125.728622 
z"/>
<path fill="#EBF4F2" opacity="1.000000" stroke="none" 
	d="
M136.904022,128.170166 
	C134.337524,124.864014 131.910263,121.328621 133.772156,116.994980 
	C136.238434,111.254608 142.440247,110.337173 148.685852,114.428879 
	C149.080399,114.329239 149.104874,114.245995 149.104874,114.245995 
	C147.069489,115.683403 145.444519,117.623756 142.233704,116.264702 
	C141.200333,115.827309 137.816055,117.955925 137.620819,119.233627 
	C137.334747,121.105621 138.951416,123.268372 139.609802,125.637177 
	C138.609573,126.701477 137.756790,127.435822 136.904022,128.170166 
z"/>
<path fill="#EBF4F2" opacity="1.000000" stroke="none" 
	d="
M93.904037,104.170166 
	C91.231964,101.041573 89.150291,97.489815 90.599480,93.366898 
	C92.660187,87.504181 99.185982,86.306328 106.102592,91.126900 
	C103.874855,91.707153 102.438034,92.022476 101.039207,92.459435 
	C98.886810,93.131775 95.974800,93.268867 94.806534,94.752419 
	C93.037476,96.998932 93.889191,99.761185 96.609802,101.637177 
	C95.609566,102.701469 94.756798,103.435814 93.904037,104.170166 
z"/>
<path fill="#FCF7ED" opacity="1.000000" stroke="none" 
	d="
M189.046265,116.134666 
	C189.014603,115.298218 188.982941,114.461769 188.922531,113.208313 
	C192.010635,112.602768 195.257065,111.782364 198.211044,112.388092 
	C201.781784,113.120300 202.526428,117.336136 200.071106,121.783424 
	C199.130325,121.033752 198.533707,120.138374 197.784683,118.592896 
	C195.490540,113.919830 191.894348,116.803459 189.046265,116.134666 
z"/>
<path fill="#FCF7ED" opacity="1.000000" stroke="none" 
	d="
M74.046432,116.134506 
	C74.014717,115.298103 73.982994,114.461708 73.922516,113.208313 
	C77.010612,112.602776 80.257042,111.782349 83.211029,112.388062 
	C86.781776,113.120262 87.526436,117.336128 85.071121,121.783417 
	C84.130333,121.033745 83.533722,120.138359 82.784676,118.592888 
	C80.490685,113.919693 76.894371,116.803726 74.046432,116.134506 
z"/>
<path fill="#FCF7ED" opacity="1.000000" stroke="none" 
	d="
M77.074593,97.780998 
	C76.132957,97.032143 75.535057,96.137627 74.784706,94.592957 
	C72.490685,89.919693 68.894371,92.803726 66.046432,92.134506 
	C66.014717,91.298103 65.983002,90.461708 65.922516,89.208313 
	C69.010056,88.602600 72.255653,87.782509 75.209427,88.387390 
	C78.779228,89.118423 79.525871,93.332932 77.074593,97.780998 
z"/>
<path fill="#E4F3F4" opacity="1.000000" stroke="none" 
	d="
M158.031265,116.140778 
	C158.581589,120.566238 159.131897,124.991699 159.725662,129.766495 
	C157.858871,129.766495 156.650116,129.766495 155.016846,129.766495 
	C155.016846,125.439003 155.016846,121.196877 155.203522,116.337875 
	C156.270538,115.860924 157.150909,116.000847 158.031265,116.140778 
z"/>
<path fill="#F2EFE1" opacity="1.000000" stroke="none" 
	d="
M82.660637,93.762421 
	C83.172325,92.275024 83.683762,91.193596 84.707802,89.028275 
	C85.763763,95.380333 86.584007,100.314445 87.432617,105.419197 
	C83.322426,105.573250 82.317421,103.777290 82.621689,100.599869 
	C82.825233,98.474304 82.660385,96.313454 82.660637,93.762421 
z"/>
<path fill="#F2EFE1" opacity="1.000000" stroke="none" 
	d="
M128.340866,116.134323 
	C128.891586,120.690598 129.695496,124.960289 130.499390,129.229980 
	C129.836517,129.529663 129.173645,129.829330 128.510773,130.128998 
	C127.560654,128.439636 126.087639,126.839005 125.782387,125.040207 
	C125.318832,122.308647 125.498238,119.426056 125.722359,116.633133 
	C125.897942,114.445145 126.686928,114.308807 128.340866,116.134323 
z"/>
<path fill="#FEF9F0" opacity="1.000000" stroke="none" 
	d="
M158.447006,116.080566 
	C157.150909,116.000847 156.270538,115.860924 155.119324,115.881554 
	C153.523743,116.025719 152.199036,116.009331 150.484650,115.523003 
	C150.101868,114.088005 150.108780,113.122940 150.115677,112.157883 
	C154.963226,112.157883 159.810776,112.157883 164.651917,112.157883 
	C164.765045,116.740822 161.551041,115.969582 158.447006,116.080566 
z"/>
<path fill="#EEF7F8" opacity="1.000000" stroke="none" 
	d="
M100.653259,27.422853 
	C101.032883,41.114754 101.031471,54.979164 101.032310,69.296654 
	C100.750122,68.923134 100.219414,68.096931 100.218048,67.269867 
	C100.196167,54.045101 100.241890,40.820217 100.653259,27.422853 
z"/>
<path fill="#F3F6F0" opacity="1.000000" stroke="none" 
	d="
M94.110809,104.485901 
	C94.756798,103.435814 95.609566,102.701469 96.842438,101.919586 
	C99.705643,103.031487 103.367004,98.450333 105.097855,103.601898 
	C101.780685,106.392693 98.213463,106.932167 94.110809,104.485901 
z"/>
<path fill="#F3F6F0" opacity="1.000000" stroke="none" 
	d="
M137.110779,128.485886 
	C137.756790,127.435822 138.609573,126.701477 139.842453,125.919586 
	C142.705643,127.031494 146.367035,122.450310 148.097855,127.601913 
	C144.780670,130.392685 141.213425,130.932175 137.110779,128.485886 
z"/>
<path fill="#06190A" opacity="1.000000" stroke="none" 
	d="
M220.927917,43.754517 
	C219.270859,43.696629 217.618439,43.262302 216.776733,43.041061 
	C213.678635,39.349625 210.943375,36.090523 208.345428,32.995029 
	C209.918732,32.147018 211.506500,32.979355 214.428497,36.597851 
	C215.725159,38.203575 217.498886,39.424049 219.403687,40.716267 
	C220.145065,41.534782 220.538834,42.456432 220.927917,43.754517 
z"/>
<path fill="#F8F2E1" opacity="1.000000" stroke="none" 
	d="
M108.145187,116.371567 
	C109.241539,115.955849 110.282555,115.969337 111.639420,116.425766 
	C111.945984,118.520920 111.936699,120.173134 111.927414,121.825348 
	C110.824570,121.825348 109.721725,121.825348 108.089851,121.825348 
	C108.089851,120.160728 108.089851,118.480743 108.145187,116.371567 
z"/>
<path fill="#ECEDE9" opacity="1.000000" stroke="none" 
	d="
M59.480354,123.904755 
	C60.134628,117.816467 63.058743,122.538368 65.584793,122.950272 
	C63.922825,123.309227 61.905651,123.592987 59.480354,123.904755 
z"/>
<path fill="#F3F7F2" opacity="1.000000" stroke="none" 
	d="
M108.588989,88.003510 
	C108.958824,90.659439 108.918335,93.257523 108.546577,95.928970 
	C108.203094,93.316780 108.190872,90.631218 108.588989,88.003510 
z"/>
<path fill="#F3F7F2" opacity="1.000000" stroke="none" 
	d="
M91.588989,112.003510 
	C91.958839,114.659439 91.918343,117.257523 91.546585,119.928970 
	C91.203102,117.316780 91.190880,114.631218 91.588989,112.003510 
z"/>
<path fill="#EEF7F8" opacity="1.000000" stroke="none" 
	d="
M117.406166,54.910469 
	C117.874901,53.286453 118.739395,51.732944 119.603897,50.179432 
	C120.070900,50.403378 120.537903,50.627323 121.004906,50.851269 
	C121.004906,51.946613 121.004906,53.041954 121.007034,54.489212 
	C119.940079,54.887745 118.871010,54.934357 117.406166,54.910469 
z"/>
<path fill="#EEF7F8" opacity="1.000000" stroke="none" 
	d="
M109.439697,69.710426 
	C109.144127,65.125908 109.267296,60.431770 109.689316,55.506874 
	C109.944916,60.051014 109.901672,64.825912 109.439697,69.710426 
z"/>
<path fill="#F8F2E1" opacity="1.000000" stroke="none" 
	d="
M121.390549,125.798111 
	C120.726906,122.329010 120.385292,118.678017 119.976486,114.665329 
	C123.527626,117.593536 123.695152,121.433502 121.390549,125.798111 
z"/>
<path fill="#EEF7F8" opacity="1.000000" stroke="none" 
	d="
M110.729294,45.152103 
	C110.815498,47.264347 110.650749,49.236145 110.486008,51.207939 
	C110.088379,51.179493 109.690750,51.151043 109.293121,51.122597 
	C109.293121,48.982967 109.293121,46.843342 109.526863,44.418961 
	C109.999855,44.426689 110.239105,44.719173 110.729294,45.152103 
z"/>
<path fill="#ECEDE9" opacity="1.000000" stroke="none" 
	d="
M69.268639,119.998383 
	C69.041962,118.863472 69.018997,117.550018 69.067383,115.926697 
	C69.249939,117.017838 69.361145,118.418839 69.268639,119.998383 
z"/>
<path fill="#0F0811" opacity="1.000000" stroke="none" 
	d="
M113.008316,125.384415 
	C112.329079,125.092392 111.644035,124.456154 110.892754,123.448105 
	C111.551842,123.730934 112.277176,124.385567 113.008316,125.384415 
z"/>
<path fill="#0F0811" opacity="1.000000" stroke="none" 
	d="
M112.229446,121.628448 
	C111.936699,120.173134 111.945984,118.520920 112.028397,116.458076 
	C112.101524,116.047447 112.567146,116.034439 112.788727,116.106201 
	C112.850700,117.929161 112.691086,119.680359 112.229446,121.628448 
z"/>
<path fill="#6666B6" opacity="1.000000" stroke="none" 
	d="
M57.669342,112.176445 
	C57.724945,113.832390 57.400974,115.598488 56.816582,117.111786 
	C56.800690,115.334854 57.045231,113.810722 57.669342,112.176445 
z"/>
<path fill="#F3F7F2" opacity="1.000000" stroke="none" 
	d="
M95.453201,122.851959 
	C95.945793,122.681679 96.798759,122.459206 97.813065,122.491180 
	C97.254128,122.763672 96.533852,122.781723 95.453201,122.851959 
z"/>
<path fill="#F3F7F2" opacity="1.000000" stroke="none" 
	d="
M112.453201,98.851959 
	C112.945793,98.681671 113.798752,98.459198 114.813065,98.491180 
	C114.254128,98.763672 113.533852,98.781723 112.453201,98.851959 
z"/>
<path fill="#E4F3F4" opacity="1.000000" stroke="none" 
	d="
M149.762939,112.233208 
	C150.108780,113.122940 150.101868,114.088005 150.101074,115.414993 
	C149.778503,115.510544 149.449799,115.244179 149.112991,114.611900 
	C149.104874,114.245995 149.080399,114.329239 149.096298,114.367889 
	C149.211533,113.707207 149.310852,113.007874 149.762939,112.233208 
z"/>
<path fill="#F3F7F2" opacity="1.000000" stroke="none" 
	d="
M103.377487,115.814590 
	C102.994820,114.829903 102.997063,113.823143 102.997704,112.438843 
	C103.251541,113.305038 103.506973,114.548775 103.377487,115.814590 
z"/>
<path fill="#F3F7F2" opacity="1.000000" stroke="none" 
	d="
M120.377487,91.814590 
	C119.994820,90.829903 119.997063,89.823143 119.997704,88.438843 
	C120.251541,89.305046 120.506973,90.548775 120.377487,91.814590 
z"/>
<path fill="#0F0811" opacity="1.000000" stroke="none" 
	d="
M118.102257,119.558556 
	C118.296852,120.236443 118.395294,121.245560 118.296425,122.439804 
	C118.068108,121.713211 118.037109,120.801498 118.102257,119.558556 
z"/>
<path fill="#F8F2E1" opacity="1.000000" stroke="none" 
	d="
M119.404266,128.078125 
	C119.556404,127.526863 120.000572,126.898773 120.728149,126.170471 
	C120.573143,126.713936 120.134720,127.357628 119.404266,128.078125 
z"/>
<path fill="#F3F7F2" opacity="1.000000" stroke="none" 
	d="
M95.134590,118.528442 
	C94.968330,118.055817 94.730064,117.244278 94.754417,116.280975 
	C95.032219,116.815994 95.047401,117.502762 95.134590,118.528442 
z"/>
<path fill="#F8F2E1" opacity="1.000000" stroke="none" 
	d="
M108.606987,112.082977 
	C108.850533,112.873962 108.727577,113.692375 108.382065,114.728821 
	C108.186501,114.001366 108.213493,113.055893 108.606987,112.082977 
z"/>
<path fill="#F3F7F2" opacity="1.000000" stroke="none" 
	d="
M112.134590,94.528442 
	C111.968323,94.055824 111.730057,93.244278 111.754417,92.280975 
	C112.032227,92.815994 112.047409,93.502762 112.134590,94.528442 
z"/>
<path fill="#F3F7F2" opacity="1.000000" stroke="none" 
	d="
M102.294464,122.678482 
	C102.186760,122.197876 102.384575,121.719421 102.817154,121.112816 
	C102.901276,121.549980 102.750626,122.115303 102.294464,122.678482 
z"/>
<path fill="#F3F7F2" opacity="1.000000" stroke="none" 
	d="
M119.294472,98.678482 
	C119.186760,98.197876 119.384575,97.719421 119.817169,97.112816 
	C119.901291,97.549988 119.750641,98.115311 119.294472,98.678482 
z"/>
<path fill="#20AA49" opacity="1.000000" stroke="none" 
	d="
M220.899094,46.739914 
	C220.500626,46.829296 220.384476,46.585361 220.656052,46.146496 
	C220.784149,46.048256 220.921768,46.503300 220.899094,46.739914 
z"/>
<path fill="#0F0811" opacity="1.000000" stroke="none" 
	d="
M115.868370,125.077820 
	C116.002800,125.406059 115.803711,125.641647 115.254517,125.697403 
	C115.160934,125.353233 115.371078,125.175766 115.868370,125.077820 
z"/>
<path fill="#20AA49" opacity="1.000000" stroke="none" 
	d="
M220.852661,50.726929 
	C220.433334,50.747280 220.369766,50.490429 220.734680,50.104683 
	C220.876266,50.025131 220.921539,50.499065 220.852661,50.726929 
z"/>
<path fill="#010201" opacity="1.000000" stroke="none" 
	d="
M207.430283,39.781105 
	C211.641434,44.984646 212.305878,50.195042 209.563690,54.720852 
	C207.139420,58.722019 201.946167,60.558208 196.458557,59.932899 
	C194.616867,59.723030 192.629318,60.793037 191.704895,61.026447 
	C191.099731,59.090328 190.744736,56.672306 189.640869,54.666401 
	C186.486710,48.934826 187.667297,42.394939 192.838943,38.713490 
	C196.870346,35.843731 204.149139,36.258793 207.430283,39.781105 
z"/>
<path fill="#0F0E12" opacity="1.000000" stroke="none" 
	d="
M178.483276,117.423935 
	C178.629349,119.956718 179.234985,122.662155 178.174713,124.266960 
	C177.416229,125.414993 174.111221,125.840309 172.528320,125.181145 
	C171.255112,124.650932 170.199997,122.007736 170.210495,120.309273 
	C170.233597,116.573395 173.839569,115.284958 178.483276,117.423935 
z"/>
<path fill="#ECEDE9" opacity="1.000000" stroke="none" 
	d="
M64.111832,117.373985 
	C64.884048,117.648186 65.415977,118.158806 65.947906,118.669426 
	C65.338745,119.070465 64.729591,119.471497 64.120430,119.872536 
	C64.037468,119.118492 63.954506,118.364441 64.111832,117.373985 
z"/>
<path fill="#1C141B" opacity="1.000000" stroke="none" 
	d="
M189.029236,116.504791 
	C191.894348,116.803459 195.490540,113.919830 197.601212,118.323853 
	C194.334808,119.884621 190.807419,122.430031 189.029236,116.504791 
z"/>
<path fill="#1C141B" opacity="1.000000" stroke="none" 
	d="
M74.029327,116.504646 
	C76.894371,116.803726 80.490685,113.919693 82.601196,118.323860 
	C79.334755,119.884621 75.807304,122.430092 74.029327,116.504646 
z"/>
<path fill="#1C141B" opacity="1.000000" stroke="none" 
	d="
M66.029327,92.504646 
	C68.894371,92.803726 72.490685,89.919693 74.601196,94.323860 
	C71.334755,95.884621 67.807304,98.430092 66.029327,92.504646 
z"/>
</svg>